<?xml version="1.0" encoding="UTF-8"?>
<svg version="1.1" xmlns="http://www.w3.org/2000/svg" width="606" height="233">
<path d="M0 0 C2.62385166 0.49826275 5.1883501 1.11594411 7.77563477 1.77758789 C22.53822605 5.52041264 36.8619573 5.3615406 51.98486328 4.90234375 C53.28358116 4.87333229 53.28358116 4.87333229 54.60853577 4.84373474 C56.23329357 4.80597209 57.8577861 4.75085385 59.48118591 4.67445374 C65.08402153 4.55156866 69.42083771 5.66199303 74 9 C75.90917969 11.54321289 75.90917969 11.54321289 77.171875 14.41015625 C77.65076172 15.47766113 78.12964844 16.54516602 78.62304688 17.64501953 C79.07744141 18.75216309 79.53183594 19.85930664 80 21 C80.64291992 22.56210205 80.64291992 22.56210205 81.29882812 24.15576172 C82.6567026 27.56858744 83.95796799 30.9992247 85.25 34.4375 C86.28048467 37.14762778 87.31724095 39.85533013 88.35546875 42.5625 C88.63361923 43.28855942 88.91176971 44.01461884 89.198349 44.76268005 C93.97461475 57.18520533 98.98348355 69.51733875 103.94433594 81.86694336 C104.51211006 83.28154846 104.51211006 83.28154846 105.09135437 84.72473145 C105.80072734 86.4917041 106.51095951 88.25833219 107.22224426 90.02453613 C107.54408188 90.82588989 107.86591949 91.62724365 108.19750977 92.45288086 C108.47442154 93.14103378 108.75133331 93.82918671 109.03663635 94.53819275 C110.39579908 98.01143639 111.6954278 101.50588843 113 105 C113.00586624 103.87104813 113.01173248 102.74209625 113.01777649 101.57893372 C113.07498486 90.94057829 113.14773673 80.30242766 113.23571491 69.66428089 C113.28044589 64.19506617 113.31969612 58.72592642 113.34643555 53.2565918 C113.37244113 47.9785554 113.41282435 42.70080706 113.46318626 37.42294884 C113.47987351 35.40916209 113.4913762 33.39532549 113.49761391 31.38147926 C113.50723468 28.56105971 113.53526997 25.74138021 113.56762695 22.92114258 C113.56619186 22.08820175 113.56475677 21.25526093 113.5632782 20.39707947 C113.65465699 14.76660453 114.73668953 11.42209285 118.67041016 7.21240234 C122.11329626 5.42060058 125.48273905 5.57166138 129.2734375 5.6015625 C130.07480133 5.59869232 130.87616516 5.59582214 131.70181274 5.59286499 C133.39464017 5.59082665 135.08749128 5.59634044 136.78027344 5.60888672 C139.35926616 5.62490229 141.9366818 5.60905284 144.515625 5.58984375 C146.16406594 5.59182705 147.81250589 5.59567251 149.4609375 5.6015625 C150.2267514 5.59548981 150.99256531 5.58941711 151.78158569 5.5831604 C156.66516418 5.64664848 159.61903544 6.68787867 164 9 C166.18317872 9.08009502 166.18317872 9.08009502 168.22265625 8.453125 C168.99770508 8.2677417 169.77275391 8.0823584 170.57128906 7.89135742 C171.39338867 7.67970947 172.21548828 7.46806152 173.0625 7.25 C180.30544131 5.60027856 187.32540201 4.52143787 194.75 4.1875 C195.53898682 4.1472168 196.32797363 4.10693359 197.14086914 4.06542969 C202.97145048 3.85954006 208.72157376 4.20301496 214.53877258 4.6073761 C219.7335835 4.9554103 224.91574413 5.12439337 230.12109375 5.2109375 C231.26818314 5.23233543 231.26818314 5.23233543 232.43844604 5.25416565 C235.56527612 5.31159873 238.69191565 5.36674545 241.8190918 5.40136719 C262.03440298 5.64249583 262.03440298 5.64249583 268.98046875 11.5234375 C272.00566553 15.73613108 272.03282112 20.59886827 272.3125 25.625 C272.38025635 26.6039624 272.4480127 27.5829248 272.51782227 28.59155273 C272.70164826 31.39356289 272.85200232 34.19591635 273 37 C273.14308594 38.94712891 273.14308594 38.94712891 273.2890625 40.93359375 C273.63152876 48.15242193 273.63152876 48.15242193 270.625 52.1875 C266.52110407 55.02114243 264.8913323 55.02318934 259.9375 54.5625 C240.63297872 52.39628985 240.63297872 52.39628985 223 58.125 C219.99640426 62.44266887 219.51384174 66.14888435 220.375 71.19921875 C224.25462678 85.09313214 236.65999275 93.16696522 247.93432617 100.81420898 C266.23257543 113.28593843 279.21475514 126.55292568 288 147 C288.14695312 145.18628906 288.14695312 145.18628906 288.296875 143.3359375 C289.79526508 126.34663322 292.52656796 107.76947027 305.8203125 95.6796875 C316.87857687 87.15808593 331.33266641 84.81647052 345 86 C357.72926625 87.79461786 368.98105304 91.46228124 377 102 C379.24063091 105.9019534 381.18845973 109.88286301 383 114 C383.02578125 112.96359375 383.0515625 111.9271875 383.078125 110.859375 C383.13441951 109.48954199 383.19176655 108.11975195 383.25 106.75 C383.26417969 106.06808594 383.27835937 105.38617188 383.29296875 104.68359375 C383.44730045 101.50436081 383.84439471 99.26043412 385.484375 96.515625 C389.22784671 94.26024143 392.73637932 94.67202918 397 95 C396.98428955 94.32533691 396.9685791 93.65067383 396.95239258 92.95556641 C396.88933921 89.84546576 396.85078869 86.73550028 396.8125 83.625 C396.77479492 82.03365234 396.77479492 82.03365234 396.73632812 80.41015625 C396.65145376 71.18714205 397.78385549 62.22416795 404 55 C412.6748237 47.62023292 424.09412451 47.30508726 435 48 C444.78675494 49.09838738 444.78675494 49.09838738 447.61962891 51.20361328 C449.5250482 53.68328699 449.37275243 55.36841223 449.36328125 58.47265625 C449.36263672 59.53677734 449.36199219 60.60089844 449.36132812 61.69726562 C449.34521484 62.80779297 449.32910156 63.91832031 449.3125 65.0625 C449.31572266 66.17689453 449.31894531 67.29128906 449.32226562 68.43945312 C449.26694139 76.73305861 449.26694139 76.73305861 447 79 C444.20727976 79.34526588 441.43981887 79.44256407 438.62890625 79.55859375 C435.61681114 79.80293125 435.61681114 79.80293125 433 83 C432.67 86.96 432.34 90.92 432 95 C441.57 95 451.14 95 461 95 C460.84197969 85.63576311 460.84197969 85.63576311 460.63964844 76.27246094 C460.62466309 74.5211084 460.62466309 74.5211084 460.609375 72.734375 C460.58842773 71.54038086 460.56748047 70.34638672 460.54589844 69.11621094 C461 66 461 66 462.6237793 63.61010742 C465.71928442 61.51261885 467.68622806 61.49781578 471.41015625 61.50390625 C473.26543945 61.50293945 473.26543945 61.50293945 475.15820312 61.50195312 C476.44662109 61.52193359 477.73503906 61.54191406 479.0625 61.5625 C480.35478516 61.55541016 481.64707031 61.54832031 482.97851562 61.54101562 C492.32519339 61.60439946 492.32519339 61.60439946 494.87402344 63.09863281 C496.5982372 66.01020627 496.33546213 68.49849202 496.29296875 71.85546875 C496.28872391 72.51710526 496.28447906 73.17874176 496.28010559 73.86042786 C496.26333693 75.9698691 496.22569099 78.07834846 496.1875 80.1875 C496.17245068 81.61912681 496.1587627 83.05076862 496.14648438 84.48242188 C496.1134403 87.98859288 496.06167167 91.49420254 496 95 C497.55460938 94.94779297 497.55460938 94.94779297 499.140625 94.89453125 C500.51040042 94.86638518 501.88019341 94.83908589 503.25 94.8125 C503.93191406 94.78736328 504.61382813 94.76222656 505.31640625 94.73632812 C508.34659196 94.69219921 510.68000635 94.85428491 513.45336914 96.1171875 C515.69116375 98.84139776 515.50178201 100.81842342 515.49609375 104.3125 C515.49673828 105.55257812 515.49738281 106.79265625 515.49804688 108.0703125 C515.47806641 109.36710937 515.45808594 110.66390625 515.4375 112 C515.44458984 113.29679687 515.45167969 114.59359375 515.45898438 115.9296875 C515.39590198 125.26588217 515.39590198 125.26588217 513.98461914 127.8828125 C510.76847689 129.69325252 507.39487717 129.30951983 503.8125 129.1875 C503.06291016 129.17396484 502.31332031 129.16042969 501.54101562 129.14648438 C499.69370233 129.11118539 497.84675934 129.05737917 496 129 C496.08449447 136.47607741 496.17941288 143.95194651 496.28752708 151.42772198 C496.33740742 154.89928401 496.3837378 158.37081683 496.421875 161.8425293 C496.46590781 165.83661816 496.52552492 169.83034381 496.5859375 173.82421875 C496.59748871 175.06709152 496.60903992 176.30996429 496.62094116 177.59049988 C496.6507457 179.33173882 496.6507457 179.33173882 496.68115234 181.1081543 C496.70113785 182.63704536 496.70113785 182.63704536 496.7215271 184.19682312 C497.01846561 187.1858794 497.58925759 189.34874159 499 192 C502.82996083 193.27665361 506.49081989 193.37060894 510.50390625 193.62109375 C513 194 513 194 515 196 C515.48893343 200.62761116 515.37040694 205.28702683 515.375 209.9375 C515.39949219 211.23880859 515.42398438 212.54011719 515.44921875 213.88085938 C515.45308594 215.12544922 515.45695313 216.37003906 515.4609375 217.65234375 C515.46915527 218.79695068 515.47737305 219.94155762 515.48583984 221.12084961 C515 224 515 224 513.10327148 225.85473633 C507.79532892 228.74499269 501.70426992 228.21678354 495.8125 228.25 C494.46961914 228.2809375 494.46961914 228.2809375 493.09960938 228.3125 C484.62861419 228.36142994 476.27708328 226.86143133 469.46484375 221.5078125 C459.35374727 211.10012386 460.85227404 192.96661539 460.90234375 179.68359375 C460.90421239 178.21672107 460.90563419 176.74984777 460.90663147 175.28297424 C460.91042152 171.45094025 460.92022118 167.61894508 460.93133545 163.78692627 C460.94343982 159.17372184 460.94796855 154.56050432 460.95378876 149.94728851 C460.96343533 142.96483213 460.98261628 135.98246069 461 129 C451.43 129 441.86 129 432 129 C432.01571045 131.79106201 432.0314209 134.58212402 432.04760742 137.45776367 C432.09730923 146.67781498 432.13045139 155.89787219 432.15543652 165.11802197 C432.17109462 170.70839205 432.19233576 176.29862491 432.22631836 181.88891602 C432.25890631 187.28352012 432.27685193 192.67799221 432.28463173 198.07268715 C432.29017622 200.13118887 432.3010032 202.18968334 432.31719017 204.24812889 C432.33895673 207.13066619 432.34196722 210.01265745 432.34057617 212.89526367 C432.35675491 214.17272713 432.35675491 214.17272713 432.3732605 215.47599792 C432.34912714 220.09545864 432.11610626 223.31251374 429 227 C426.04492188 227.59936523 426.04492188 227.59936523 422.46875 227.55859375 C421.18355469 227.55150391 419.89835937 227.54441406 418.57421875 227.53710938 C417.57140869 227.51233521 417.57140869 227.51233521 416.54833984 227.48706055 C414.50686436 227.43766609 412.46780019 227.42558185 410.42578125 227.41992188 C400.44212601 227.29475067 400.44212601 227.29475067 397 225 C396.71398051 221.91987386 396.62210172 219.04177078 396.65942383 215.96044922 C396.65898575 215.02381439 396.65854767 214.08717957 396.65809631 213.12216187 C396.66019181 210.01612741 396.68355878 206.91062804 396.70703125 203.8046875 C396.71262449 201.65520523 396.71689587 199.50571914 396.71989441 197.35623169 C396.73136453 191.69095351 396.7608504 186.02590502 396.79400635 180.36071777 C396.82466054 174.58295805 396.83838979 168.80516131 396.85351562 163.02734375 C396.88571798 151.68479476 396.9369405 140.34241646 397 129 C393.7 129 390.4 129 387 129 C387.15597656 130.43085938 387.31195313 131.86171875 387.47265625 133.3359375 C390.21598915 160.49262792 391.97111188 192.48182276 375.0390625 215.6875 C368.316206 223.31188898 357.95423034 227.75126143 348 229 C333.55186987 229.86979281 320.42219525 229.13602458 308 221 C307.113125 220.4225 306.22625 219.845 305.3125 219.25 C296.56649335 210.74037191 292.16099286 198.78723376 290 187 C289.6596875 188.02738281 289.319375 189.05476562 288.96875 190.11328125 C283.58230261 205.76503976 275.69601127 217.29237104 260.55712891 224.89111328 C245.80899479 231.9241507 231.37754918 233.18337669 215.25 233.125 C214.49598907 233.1234491 213.74197815 233.12189819 212.96511841 233.12030029 C201.56899063 233.09311295 190.17479254 232.95355566 178.78186035 232.68060303 C177.23577931 232.64393341 175.68963323 232.60989781 174.14343262 232.57867432 C166.76946832 232.42403623 159.72104025 232.12188634 152.50561523 230.45019531 C146.03191991 229.28703696 139.28405645 229.59646989 132.72460938 229.52148438 C120.93081625 229.25059053 120.93081625 229.25059053 116 226 C111.82127414 220.63155724 109.33888252 214.42081881 106.91796875 208.125 C106.54126541 207.16577637 106.16456207 206.20655273 105.77644348 205.21826172 C104.57255904 202.14840507 103.37958162 199.07445657 102.1875 196 C101.0417788 193.06475033 99.89368018 190.13043973 98.74514771 187.19628906 C97.93669673 185.13088389 97.12915579 183.06512229 96.32247925 180.99902344 C89.65606975 163.95682518 82.81141907 146.98461508 76 130 C75.99413376 131.10167511 75.98826752 132.20335022 75.98222351 133.33840942 C75.92498305 143.7262817 75.85221433 154.11394491 75.76428509 164.50160408 C75.7195788 169.84187432 75.6803231 175.18206822 75.65356445 180.52246094 C75.62753427 185.6773118 75.58713353 190.83186895 75.53681374 195.98653793 C75.52014316 197.95204894 75.50863007 199.91761074 75.50238609 201.88318253 C75.49274719 204.63874268 75.46469022 207.39355107 75.43237305 210.14892578 C75.43380814 210.95956985 75.43524323 211.77021393 75.4367218 212.60542297 C75.3428635 218.27299462 74.24894134 222.49454811 70.34326172 226.84570312 C66.82723663 228.57770632 63.34628926 228.4677735 59.5078125 228.46875 C58.68425262 228.47636353 57.86069275 228.48397705 57.01217651 228.49182129 C55.27230861 228.50261117 53.532376 228.5054799 51.79248047 228.50097656 C49.14049245 228.50000567 46.49141306 228.54160511 43.83984375 228.5859375 C42.14583934 228.59114606 40.45182492 228.59383267 38.7578125 228.59375 C37.97012482 228.61014526 37.18243713 228.62654053 36.37088013 228.64343262 C30.48840681 228.57019596 28.25163014 226.99995208 24 223 C21.97685705 222.06235979 21.97685705 222.06235979 20.01953125 221.7421875 C19.33052734 221.59136719 18.64152344 221.44054687 17.93164062 221.28515625 C16.88266602 221.08212891 16.88266602 221.08212891 15.8125 220.875 C7.24455249 219.1505355 7.24455249 219.1505355 5 216 C3.42273168 212.84546335 3.85809494 209.46259198 3.8671875 206 C3.86623077 205.20851562 3.86527405 204.41703125 3.86428833 203.6015625 C3.86360741 201.92708253 3.86545556 200.25259991 3.86962891 198.578125 C3.87497842 196.01035654 3.86968097 193.442763 3.86328125 190.875 C3.86394205 189.24999961 3.86522324 187.62499933 3.8671875 186 C3.86516327 185.22914063 3.86313904 184.45828125 3.86105347 183.6640625 C3.88503934 178.22992132 3.88503934 178.22992132 5 176 C0.7292236 175.20802599 -3.54163164 174.41647795 -7.8125 173.625 C-9.00810547 173.40328125 -10.20371094 173.1815625 -11.43554688 172.953125 C-18.62124345 171.62171528 -25.80881743 170.30146322 -33 169 C-33.11625732 169.69150146 -33.23251465 170.38300293 -33.35229492 171.09545898 C-34.5112899 176.29280659 -36.61820107 181.17080801 -38.55541992 186.12036133 C-39.31001191 188.0561173 -40.04870109 189.99747619 -40.78710938 191.93945312 C-41.26599609 193.16728516 -41.74488281 194.39511719 -42.23828125 195.66015625 C-42.67180908 196.78043213 -43.10533691 197.90070801 -43.55200195 199.05493164 C-45.08605511 202.17502661 -46.20045831 203.94040401 -49 206 C-54.02583634 207.24894316 -58.07199572 206.88293674 -63.10546875 205.85546875 C-63.75195877 205.72562088 -64.39844879 205.59577301 -65.06452942 205.46199036 C-66.41938666 205.18741952 -67.77312867 204.90729139 -69.12573242 204.62182617 C-71.19003967 204.186965 -73.25748006 203.77086615 -75.32617188 203.35742188 C-86.77962493 201.01566486 -86.77962493 201.01566486 -90 199 C-91.98616845 195.0276631 -90.58194343 189.94483714 -89.34979248 185.82702637 C-88.52436626 183.60328004 -87.63452588 181.41916196 -86.7109375 179.234375 C-86.37603302 178.41604187 -86.04112854 177.59770874 -85.69607544 176.75457764 C-84.59956212 174.0819187 -83.48729124 171.41612625 -82.375 168.75 C-81.59842945 166.86441781 -80.82305632 164.97834206 -80.04882812 163.09179688 C-78.46702528 159.24070684 -76.87977637 155.39193542 -75.28808594 151.54492188 C-72.2894683 144.28972688 -69.34475594 137.01297265 -66.40344238 129.73440552 C-64.87353641 125.95062205 -63.33874421 122.16882079 -61.8046875 118.38671875 C-55.95607468 103.96162531 -50.11840614 89.53209914 -44.27961731 75.10302734 C-42.04522092 69.58166116 -39.80973861 64.06073592 -37.57342529 58.54014587 C-36.0583227 54.79991008 -34.54353009 51.05954878 -33.02874756 47.31918335 C-32.31800207 45.56442234 -31.60711256 43.80971966 -30.89605713 42.05508423 C-30.22563133 40.40067634 -29.5555418 38.74613214 -28.88580322 37.09144592 C-28.23546342 35.48627143 -27.58359221 33.88171646 -26.93011475 32.27781677 C-25.20709478 28.03769856 -23.52888271 23.78516512 -21.90283203 19.50683594 C-21.37901695 18.1472023 -21.37901695 18.1472023 -20.84461975 16.76010132 C-20.17868673 15.02815168 -19.52307489 13.29218361 -18.87986755 11.55166626 C-14.98687154 1.49472225 -10.61199724 -1.20550587 0 0 Z M10 50 C9.80114197 50.51998062 9.60228394 51.03996124 9.3973999 51.57569885 C7.26236505 57.15808177 5.12630328 62.74007109 2.98989868 68.32192993 C1.7538369 71.55247197 0.51885455 74.78342527 -0.71606445 78.0144043 C-4.41061742 87.67425332 -8.11325764 97.3299024 -11.90234375 106.953125 C-12.470397 108.40030163 -13.03843165 109.84748556 -13.60644531 111.29467773 C-14.6404369 113.92779244 -15.68425703 116.55672882 -16.73339844 119.18383789 C-17.41257324 120.91234985 -17.41257324 120.91234985 -18.10546875 122.67578125 C-18.49887451 123.66489502 -18.89228027 124.65400879 -19.29760742 125.6730957 C-20.28886252 127.99444476 -20.28886252 127.99444476 -19 130 C-16.53591239 130.75467852 -16.53591239 130.75467852 -13.5390625 131.2890625 C-12.42789063 131.50820312 -11.31671875 131.72734375 -10.171875 131.953125 C-9.00140625 132.17484375 -7.8309375 132.3965625 -6.625 132.625 C-5.46226563 132.85445313 -4.29953125 133.08390625 -3.1015625 133.3203125 C2.90731048 134.55566053 2.90731048 134.55566053 9 135 C9.66 106.95 10.32 78.9 11 50 C10.67 50 10.34 50 10 50 Z M331.125 120 C325.26896577 128.26734244 324.84702575 137.61157621 324.83203125 147.453125 C324.82870285 148.234599 324.82537445 149.016073 324.82194519 149.82122803 C324.8169152 151.4649599 324.81453564 153.10870185 324.81469727 154.75244141 C324.81251789 157.22966893 324.79433961 159.70644512 324.77539062 162.18359375 C324.62750909 179.799149 324.62750909 179.799149 331.1875 195.8125 C334.23663694 197.81021041 337.43923616 198.21580387 341 198 C345.9817122 195.65013576 348.13342304 193.13308664 350 188 C352.39675128 178.96543757 352.30749532 169.86460046 352.26074219 160.59399414 C352.25003556 158.07088102 352.26068099 155.548482 352.2734375 153.02539062 C352.67579163 134.87089198 352.67579163 134.87089198 345 119 C340.37225147 116.68612574 335.28216328 117.10806033 331.125 120 Z M165 133 C163.73515325 150.32388321 163.8990199 167.64229826 164 185 C166.37374216 185.02039979 168.74730551 185.03520132 171.12109375 185.046875 C171.78572632 185.05315918 172.45035889 185.05944336 173.13513184 185.06591797 C183.06449596 185.10243417 190.25372827 183.95368253 197.8125 177.4375 C200.47383464 174.21588439 200.34525732 170.43223248 200.26171875 166.4609375 C199.42431185 158.58681294 195.30042529 153.55262358 189.41015625 148.55078125 C177.92000113 138.68590039 177.92000113 138.68590039 165 133 Z " fill="#FC0000" transform="translate(91,0)"/>
<path d="M0 0 C1.90541929 2.47967371 1.75312353 4.16479895 1.74365234 7.26904297 C1.74268555 8.86522461 1.74268555 8.86522461 1.74169922 10.49365234 C1.72558594 11.60417969 1.70947266 12.71470703 1.69287109 13.85888672 C1.69609375 14.97328125 1.69931641 16.08767578 1.70263672 17.23583984 C1.64731249 25.52944533 1.64731249 25.52944533 -0.61962891 27.79638672 C-3.41234914 28.1416526 -6.17981003 28.23895079 -8.99072266 28.35498047 C-12.00281776 28.59931797 -12.00281776 28.59931797 -14.61962891 31.79638672 C-14.94962891 35.75638672 -15.27962891 39.71638672 -15.61962891 43.79638672 C-6.04962891 43.79638672 3.52037109 43.79638672 13.38037109 43.79638672 C13.22235079 34.43214983 13.22235079 34.43214983 13.02001953 25.06884766 C13.0100293 23.9012793 13.00003906 22.73371094 12.98974609 21.53076172 C12.96879883 20.33676758 12.94785156 19.14277344 12.92626953 17.91259766 C13.38037109 14.79638672 13.38037109 14.79638672 15.00415039 12.40649414 C18.09965551 10.30900557 20.06659915 10.29420249 23.79052734 10.30029297 C25.64581055 10.29932617 25.64581055 10.29932617 27.53857422 10.29833984 C28.82699219 10.31832031 30.11541016 10.33830078 31.44287109 10.35888672 C32.73515625 10.35179687 34.02744141 10.34470703 35.35888672 10.33740234 C44.70556448 10.40078618 44.70556448 10.40078618 47.25439453 11.89501953 C48.9786083 14.80659299 48.71583322 17.29487874 48.67333984 20.65185547 C48.669095 21.31349197 48.66485016 21.97512848 48.66047668 22.65681458 C48.64370803 24.76625582 48.60606209 26.87473518 48.56787109 28.98388672 C48.55282178 30.41551353 48.5391338 31.84715534 48.52685547 33.27880859 C48.49381139 36.78497959 48.44204277 40.29058925 48.38037109 43.79638672 C49.93498047 43.74417969 49.93498047 43.74417969 51.52099609 43.69091797 C52.89077151 43.6627719 54.26056451 43.63547261 55.63037109 43.60888672 C56.31228516 43.58375 56.99419922 43.55861328 57.69677734 43.53271484 C60.72696305 43.48858593 63.06037744 43.65067163 65.83374023 44.91357422 C68.07153484 47.63778448 67.88215311 49.61481013 67.87646484 53.10888672 C67.87710938 54.34896484 67.87775391 55.58904297 67.87841797 56.86669922 C67.8584375 58.16349609 67.83845703 59.46029297 67.81787109 60.79638672 C67.82496094 62.09318359 67.83205078 63.38998047 67.83935547 64.72607422 C67.77627307 74.06226889 67.77627307 74.06226889 66.36499023 76.67919922 C63.14884799 78.48963924 59.77524827 78.10590655 56.19287109 77.98388672 C55.44328125 77.97035156 54.69369141 77.95681641 53.92138672 77.94287109 C52.07407342 77.90757211 50.22713043 77.85376589 48.38037109 77.79638672 C48.46486557 85.27246413 48.55978398 92.74833323 48.66789818 100.2241087 C48.71777851 103.69567073 48.76410889 107.16720355 48.80224609 110.63891602 C48.84627891 114.63300488 48.90589601 118.62673053 48.96630859 122.62060547 C48.98363541 124.48491463 48.98363541 124.48491463 49.00131226 126.3868866 C49.03111679 128.12812553 49.03111679 128.12812553 49.06152344 129.90454102 C49.08150894 131.43343208 49.08150894 131.43343208 49.10189819 132.99320984 C49.39883671 135.98226612 49.96962868 138.14512831 51.38037109 140.79638672 C55.21033192 142.07304033 58.87119099 142.16699566 62.88427734 142.41748047 C65.38037109 142.79638672 65.38037109 142.79638672 67.38037109 144.79638672 C67.86930453 149.42399788 67.75077803 154.08341355 67.75537109 158.73388672 C67.77986328 160.03519531 67.80435547 161.33650391 67.82958984 162.67724609 C67.83345703 163.92183594 67.83732422 165.16642578 67.84130859 166.44873047 C67.84952637 167.5933374 67.85774414 168.73794434 67.86621094 169.91723633 C67.38037109 172.79638672 67.38037109 172.79638672 65.48364258 174.65112305 C60.17570001 177.54137941 54.08464102 177.01317026 48.19287109 177.04638672 C46.84999023 177.07732422 46.84999023 177.07732422 45.47998047 177.10888672 C37.00898529 177.15781665 28.65745438 175.65781805 21.84521484 170.30419922 C11.73411836 159.89651058 13.23264514 141.76300211 13.28271484 128.47998047 C13.28458349 127.01310779 13.28600528 125.54623449 13.28700256 124.07936096 C13.29079261 120.24732697 13.30059228 116.4153318 13.31170654 112.58331299 C13.32381092 107.97010856 13.32833965 103.35689104 13.33415985 98.74367523 C13.34380643 91.76121885 13.36298737 84.77884741 13.38037109 77.79638672 C3.81037109 77.79638672 -5.75962891 77.79638672 -15.61962891 77.79638672 C-15.59606323 81.98297974 -15.59606323 81.98297974 -15.57202148 86.25415039 C-15.52231968 95.4742017 -15.48917752 104.69425891 -15.46419239 113.91440868 C-15.44853429 119.50477877 -15.42729315 125.09501163 -15.39331055 130.68530273 C-15.36072259 136.07990684 -15.34277698 141.47437893 -15.33499718 146.86907387 C-15.32945268 148.92757559 -15.31862571 150.98607006 -15.30243874 153.04451561 C-15.28067218 155.92705291 -15.27766168 158.80904417 -15.27905273 161.69165039 C-15.26826691 162.54329269 -15.25748108 163.394935 -15.24636841 164.27238464 C-15.27050177 168.89184536 -15.50352265 172.10890046 -18.61962891 175.79638672 C-21.57470703 176.39575195 -21.57470703 176.39575195 -25.15087891 176.35498047 C-26.43607422 176.34789062 -27.72126953 176.34080078 -29.04541016 176.33349609 C-30.04822021 176.30872192 -30.04822021 176.30872192 -31.07128906 176.28344727 C-33.11276454 176.23405281 -35.15182871 176.22196856 -37.19384766 176.21630859 C-47.1775029 176.09113739 -47.1775029 176.09113739 -50.61962891 173.79638672 C-50.9056484 170.71626058 -50.99752719 167.8381575 -50.96020508 164.75683594 C-50.9608622 163.3518837 -50.9608622 163.3518837 -50.96153259 161.91854858 C-50.9594371 158.81251413 -50.93607013 155.70701475 -50.91259766 152.60107422 C-50.90700441 150.45159195 -50.90273303 148.30210586 -50.8997345 146.15261841 C-50.88826438 140.48734023 -50.85877851 134.82229174 -50.82562256 129.15710449 C-50.79496836 123.37934476 -50.78123912 117.60154803 -50.76611328 111.82373047 C-50.73391092 100.48118147 -50.68268841 89.13880317 -50.61962891 77.79638672 C-53.91962891 77.79638672 -57.21962891 77.79638672 -60.61962891 77.79638672 C-60.46365234 79.22724609 -60.30767578 80.65810547 -60.14697266 82.13232422 C-57.40363975 109.28901463 -55.64851702 141.27820948 -72.58056641 164.48388672 C-79.3034229 172.1082757 -89.66539856 176.54764815 -99.61962891 177.79638672 C-114.06775903 178.66617953 -127.19743365 177.9324113 -139.61962891 169.79638672 C-140.50650391 169.21888672 -141.39337891 168.64138672 -142.30712891 168.04638672 C-154.37903128 156.30075198 -157.77288497 139.81747346 -158.18212891 123.67138672 C-158.25048361 121.43695097 -158.32078655 119.20257394 -158.39306641 116.96826172 C-158.42754883 115.90027344 -158.46203125 114.83228516 -158.49755859 113.73193359 C-158.64814676 110.11058935 -158.9683609 106.52965988 -159.30712891 102.92138672 C-160.59035327 84.60439384 -157.24107463 63.25864724 -145.80712891 48.44873047 C-136.89103725 38.83157516 -125.0990393 35.61726093 -112.32666016 34.51123047 C-98.65994579 34.12836271 -84.69792703 36.96598163 -74.36962891 46.35888672 C-69.8578011 51.1366556 -67.24413157 56.83160794 -64.61962891 62.79638672 C-64.59384766 61.75998047 -64.56806641 60.72357422 -64.54150391 59.65576172 C-64.4852094 58.28592871 -64.42786235 56.91613867 -64.36962891 55.54638672 C-64.35544922 54.86447266 -64.34126953 54.18255859 -64.32666016 53.47998047 C-64.17232846 50.30074753 -63.7752342 48.05682084 -62.13525391 45.31201172 C-58.3917822 43.05662814 -54.88324959 43.4684159 -50.61962891 43.79638672 C-50.63533936 43.12172363 -50.6510498 42.44706055 -50.66723633 41.75195312 C-50.73028969 38.64185248 -50.76884022 35.531887 -50.80712891 32.42138672 C-50.83226562 31.36048828 -50.85740234 30.29958984 -50.88330078 29.20654297 C-50.96817515 19.98352877 -49.83577342 11.02055466 -43.61962891 3.79638672 C-34.15517745 -4.2551253 -10.53583094 -7.82961208 0 0 Z M-116.49462891 68.79638672 C-122.35066314 77.06372916 -122.77260316 86.40796293 -122.78759766 96.24951172 C-122.79092606 97.03098572 -122.79425446 97.81245972 -122.79768372 98.61761475 C-122.80271371 100.26134662 -122.80509327 101.90508856 -122.80493164 103.54882812 C-122.80711102 106.02605565 -122.8252893 108.50283184 -122.84423828 110.97998047 C-122.99211981 128.59553572 -122.99211981 128.59553572 -116.43212891 144.60888672 C-113.38299197 146.60659713 -110.18039274 147.01219059 -106.61962891 146.79638672 C-101.63791671 144.44652248 -99.48620587 141.92947336 -97.61962891 136.79638672 C-95.22287763 127.76182428 -95.31213359 118.66098717 -95.35888672 109.39038086 C-95.36959334 106.86726774 -95.35894792 104.34486872 -95.34619141 101.82177734 C-94.94383727 83.66727869 -94.94383727 83.66727869 -102.61962891 67.79638672 C-107.24737744 65.48251245 -112.33746562 65.90444704 -116.49462891 68.79638672 Z " fill="#FEFEFE" transform="translate(538.61962890625,51.20361328125)"/>
<path d="M0 0 C0.7111647 -0.00241196 1.42232941 -0.00482391 2.15504456 -0.00730896 C3.65363154 -0.00633299 5.15225569 0.00700138 6.65063477 0.03198242 C8.93176158 0.06626132 11.20900222 0.05264195 13.49023438 0.03320312 C14.95183925 0.04010368 16.4134342 0.04977797 17.875 0.0625 C19.1942749 0.07337646 20.5135498 0.08425293 21.87280273 0.09545898 C26.22146501 0.73432317 28.21948271 1.70996482 31.50390625 4.62890625 C33.11450231 7.32934603 34.31970452 9.74618404 35.50390625 12.62890625 C35.90042389 13.58065735 36.29694153 14.53240845 36.70547485 15.51300049 C38.10999287 18.95000569 39.47628967 22.40047295 40.8359375 25.85546875 C41.35448411 27.1655985 41.87334663 28.47560324 42.39250183 29.78549194 C43.76261588 33.24496288 45.12841162 36.70612273 46.49328613 40.16766357 C47.82430042 43.54119164 49.15939031 46.91310505 50.49414062 50.28515625 C53.5258473 57.94688338 56.55101244 65.61118497 59.57532501 73.27583313 C61.27420372 77.58088007 62.97381837 81.88563647 64.67333984 86.19042969 C68.28405184 95.33638207 71.89415733 104.48257372 75.50390625 113.62890625 C75.51270561 111.65359673 75.51270561 111.65359673 75.52168274 109.63838196 C75.57887099 97.23410814 75.65161238 84.83001029 75.73962116 72.42591572 C75.78436754 66.04868645 75.82361443 59.67152171 75.8503418 53.29418945 C75.87633191 47.14085442 75.91670432 40.98776711 75.96709251 34.83458519 C75.98379021 32.4858629 75.99528636 30.13709773 76.00152016 27.78832436 C76.01112943 24.50095208 76.03915173 21.21421775 76.0715332 17.92700195 C76.06938057 16.4671991 76.06938057 16.4671991 76.06718445 14.97790527 C76.13548338 10.0820239 76.23037401 6.5598019 79.50390625 2.62890625 C82.60477294 1.07847291 85.88291391 1.48689875 89.28515625 1.49609375 C90.43908875 1.49465866 90.43908875 1.49465866 91.61633301 1.49319458 C93.24373456 1.49251371 94.87113882 1.49436152 96.49853516 1.49853516 C98.99387698 1.50388475 101.4890388 1.49858706 103.984375 1.4921875 C105.56380248 1.4928483 107.14322985 1.4941295 108.72265625 1.49609375 C109.84613464 1.4930574 109.84613464 1.4930574 110.99230957 1.48995972 C116.27398382 1.51394503 116.27398382 1.51394503 118.50390625 2.62890625 C118.50390625 3.28890625 118.50390625 3.94890625 118.50390625 4.62890625 C116.68954722 5.75803937 114.82476562 6.80655589 112.94140625 7.81640625 C102.00544337 14.10586847 95.31347763 22.56720399 91.87719727 34.87329102 C87.20164483 55.75937948 89.3333987 81.02138374 100.41796875 99.6328125 C106.84876672 109.17478203 106.84876672 109.17478203 115.28883362 116.78044128 C118.48770562 118.91063935 120.24718502 120.50170514 121.11849976 124.32743835 C121.31452188 127.72709851 121.29049872 131.06101948 121.1875 134.46484375 C121.17759537 135.69933258 121.16769073 136.93382141 121.15748596 138.20571899 C121.11837339 142.13966818 121.03054376 146.07080372 120.94140625 150.00390625 C120.90234068 152.67443838 120.87435147 155.34494406 120.84570312 158.015625 C120.76862067 164.55434164 120.65155708 171.09142294 120.50390625 177.62890625 C112.75390625 177.75390625 112.75390625 177.75390625 110.50390625 176.62890625 C106.43051976 176.16776816 104.25356392 176.14484158 100.76953125 178.39453125 C97.29070659 183.36085335 98.1362099 187.87570332 98.56640625 193.75390625 C98.64665039 195.37039062 98.64665039 195.37039062 98.72851562 197.01953125 C99.12855576 204.00970629 100.08471837 210.7753508 101.50390625 217.62890625 C98.1083639 217.74551449 94.71333946 217.81628997 91.31640625 217.87890625 C90.35669922 217.91242188 89.39699219 217.9459375 88.40820312 217.98046875 C84.36136256 218.03648038 81.31937309 218.00197407 77.609375 216.3046875 C74.34104664 212.15106055 72.78192232 207.50778305 71.00390625 202.56640625 C70.26746003 200.57435826 69.52787939 198.58346621 68.78515625 196.59375 C68.41688721 195.60536133 68.04861816 194.61697266 67.66918945 193.59863281 C66.13984695 189.70110039 64.38485518 185.92550555 62.62451172 182.12817383 C61.13371897 178.80328376 59.97016117 175.46153139 58.81640625 172.00390625 C56.24587206 164.49756212 53.38668372 157.12064319 50.44140625 149.75390625 C50.02995361 148.72056152 49.61850098 147.6872168 49.19458008 146.62255859 C47.20271921 141.66928737 45.13681491 136.77512564 42.89453125 131.9296875 C40.74634661 127.26333211 38.95066627 122.55836691 37.31640625 117.69140625 C35.91219881 113.55211069 34.52062406 109.51679445 32.50390625 105.62890625 C32.49804001 106.93325119 32.49217377 108.23759613 32.48612976 109.58146667 C32.42894035 121.86801243 32.35619835 134.15438055 32.26819134 146.44074535 C32.22344585 152.75744033 32.18419876 159.07407019 32.1574707 165.39086914 C32.1314797 171.48585073 32.09110667 177.58058228 32.04071999 183.67540932 C32.02402289 186.00180262 32.01252637 188.3282392 32.00629234 190.65468407 C31.9966824 193.91092579 31.96865936 197.16652365 31.9362793 200.42260742 C31.93771439 201.38645859 31.93914948 202.35030975 31.94062805 203.34336853 C31.87187497 208.22566559 31.75004216 211.69717865 28.50390625 215.62890625 C24.90062705 217.33301231 20.49676912 216.809299 16.5625 216.83203125 C15.79841324 216.83773132 15.03432648 216.8434314 14.24708557 216.8493042 C12.63584773 216.85872827 11.02459085 216.86527785 9.41333008 216.86914062 C6.94643948 216.87888637 4.48036855 216.90994892 2.01367188 216.94140625 C0.44661952 216.94793301 -1.12043877 216.95318476 -2.6875 216.95703125 C-3.4250502 216.96937805 -4.1626004 216.98172485 -4.92250061 216.9944458 C-10.02286721 216.97218439 -10.02286721 216.97218439 -12.19124985 215.39924145 C-13.8797566 213.10837514 -13.8685477 211.77944018 -13.86358643 208.94709778 C-13.86915967 207.98173757 -13.87473291 207.01637735 -13.88047504 206.0217638 C-13.87125617 204.96117599 -13.8620373 203.90058817 -13.85253906 202.80786133 C-13.85454661 201.68600528 -13.85655416 200.56414923 -13.85862255 199.40829754 C-13.86156233 195.65485352 -13.84292263 191.90183142 -13.82421875 188.1484375 C-13.82170278 185.49824266 -13.82033551 182.84806966 -13.82032776 180.19787598 C-13.81740862 173.81742778 -13.79800982 167.43713558 -13.77194947 161.05674374 C-13.75111055 155.92653768 -13.73536527 150.79634104 -13.72323608 145.66610718 C-13.68655581 130.37319834 -13.63329699 115.0804635 -13.55959523 99.78768766 C-13.5147484 90.4613335 -13.48201919 81.13504819 -13.46533203 71.80859375 C-13.44796639 62.21261252 -13.40637687 52.61709377 -13.33947754 43.02133179 C-13.31661247 39.64565102 -13.30452893 36.27019531 -13.30163574 32.8944397 C-13.29753121 29.00726324 -13.27003943 25.12100224 -13.22291374 21.2341156 C-13.20387542 19.19746479 -13.20893402 17.16063218 -13.21498108 15.12390137 C-13.07391975 6.54858885 -13.07391975 6.54858885 -10.42041016 2.32519531 C-6.71830096 0.17773708 -4.274145 -0.00235116 0 0 Z " fill="#FAFAFA" transform="translate(131.49609375,7.37109375)"/>
<path d="M0 0 C5.26972511 0.8288049 10.47232647 1.88420124 15.6875 3 C17.08247549 3.29005886 18.47765713 3.57912811 19.87304688 3.8671875 C23.25114605 4.5667564 26.62627572 5.27959092 30 6 C29.35148701 6.97399026 28.70297401 7.94798052 28.03480911 8.95148563 C25.59224076 13.25407483 25.41929241 16.90766054 25.4430542 21.77622986 C25.4314694 22.63567328 25.41988459 23.49511669 25.40794873 24.38060385 C25.37406161 27.24729822 25.3682061 30.11334647 25.36230469 32.98022461 C25.34370035 35.04036019 25.32336214 37.10048074 25.30142212 39.1605835 C25.24685824 44.74466977 25.21653439 50.32865524 25.19056606 55.91293788 C25.15928893 61.75201771 25.10571319 67.59089192 25.05450439 73.42982483 C24.96095431 84.48283772 24.88745393 95.53588935 24.82115865 106.58909565 C24.74469772 119.17439341 24.64588232 131.7594846 24.54519033 144.34460819 C24.33858867 170.22958565 24.16005594 196.11469584 24 222 C22.4266064 221.86617068 20.85379431 221.72549594 19.28125 221.58203125 C18.40533203 221.5044458 17.52941406 221.42686035 16.62695312 221.34692383 C12.65493759 220.82236676 9.61785813 219.74432446 6 218 C3.26716946 214.38466408 3.72863282 210.13350117 3.76953125 205.8046875 C3.76998947 205.01603302 3.77044769 204.22737854 3.7709198 203.41482544 C3.77393445 201.75228363 3.78179716 200.08974445 3.79418945 198.42724609 C3.81248438 195.87717742 3.81469875 193.32747132 3.81445312 190.77734375 C3.81936723 189.16145518 3.82519507 187.54556908 3.83203125 185.9296875 C3.83314407 185.16510223 3.8342569 184.40051697 3.83540344 183.61276245 C3.88390992 178.23218015 3.88390992 178.23218015 5 176 C0.7292236 175.20802599 -3.54163164 174.41647795 -7.8125 173.625 C-9.00810547 173.40328125 -10.20371094 173.1815625 -11.43554688 172.953125 C-18.62124345 171.62171528 -25.80881743 170.30146322 -33 169 C-33.11625732 169.69150146 -33.23251465 170.38300293 -33.35229492 171.09545898 C-34.5112899 176.29280659 -36.61820107 181.17080801 -38.55541992 186.12036133 C-39.31001191 188.0561173 -40.04870109 189.99747619 -40.78710938 191.93945312 C-41.26599609 193.16728516 -41.74488281 194.39511719 -42.23828125 195.66015625 C-42.67180908 196.78043213 -43.10533691 197.90070801 -43.55200195 199.05493164 C-45.08605511 202.17502661 -46.20045831 203.94040401 -49 206 C-54.02583634 207.24894316 -58.07199572 206.88293674 -63.10546875 205.85546875 C-63.75195877 205.72562088 -64.39844879 205.59577301 -65.06452942 205.46199036 C-66.41938666 205.18741952 -67.77312867 204.90729139 -69.12573242 204.62182617 C-71.19003967 204.186965 -73.25748006 203.77086615 -75.32617188 203.35742188 C-86.77962493 201.01566486 -86.77962493 201.01566486 -90 199 C-91.98616845 195.0276631 -90.58194343 189.94483714 -89.34979248 185.82702637 C-88.52436626 183.60328004 -87.63452588 181.41916196 -86.7109375 179.234375 C-86.37603302 178.41604187 -86.04112854 177.59770874 -85.69607544 176.75457764 C-84.59956212 174.0819187 -83.48729124 171.41612625 -82.375 168.75 C-81.59842945 166.86441781 -80.82305632 164.97834206 -80.04882812 163.09179688 C-78.46702528 159.24070684 -76.87977637 155.39193542 -75.28808594 151.54492188 C-72.2894683 144.28972688 -69.34475594 137.01297265 -66.40344238 129.73440552 C-64.87353641 125.95062205 -63.33874421 122.16882079 -61.8046875 118.38671875 C-55.95607468 103.96162531 -50.11840614 89.53209914 -44.27961731 75.10302734 C-42.04522092 69.58166116 -39.80973861 64.06073592 -37.57342529 58.54014587 C-36.0583227 54.79991008 -34.54353009 51.05954878 -33.02874756 47.31918335 C-32.31800207 45.56442234 -31.60711256 43.80971966 -30.89605713 42.05508423 C-30.22563133 40.40067634 -29.5555418 38.74613214 -28.88580322 37.09144592 C-28.23546342 35.48627143 -27.58359221 33.88171646 -26.93011475 32.27781677 C-25.20709478 28.03769856 -23.52888271 23.78516512 -21.90283203 19.50683594 C-21.37901695 18.1472023 -21.37901695 18.1472023 -20.84461975 16.76010132 C-20.17868673 15.02815168 -19.52307489 13.29218361 -18.87986755 11.55166626 C-14.96399601 1.4356269 -10.61894996 -1.18359532 0 0 Z M10 50 C9.80114197 50.51998062 9.60228394 51.03996124 9.3973999 51.57569885 C7.26236505 57.15808177 5.12630328 62.74007109 2.98989868 68.32192993 C1.7538369 71.55247197 0.51885455 74.78342527 -0.71606445 78.0144043 C-4.41061742 87.67425332 -8.11325764 97.3299024 -11.90234375 106.953125 C-12.470397 108.40030163 -13.03843165 109.84748556 -13.60644531 111.29467773 C-14.6404369 113.92779244 -15.68425703 116.55672882 -16.73339844 119.18383789 C-17.41257324 120.91234985 -17.41257324 120.91234985 -18.10546875 122.67578125 C-18.49887451 123.66489502 -18.89228027 124.65400879 -19.29760742 125.6730957 C-20.28886252 127.99444476 -20.28886252 127.99444476 -19 130 C-16.53591239 130.75467852 -16.53591239 130.75467852 -13.5390625 131.2890625 C-12.42789063 131.50820312 -11.31671875 131.72734375 -10.171875 131.953125 C-9.00140625 132.17484375 -7.8309375 132.3965625 -6.625 132.625 C-5.46226563 132.85445313 -4.29953125 133.08390625 -3.1015625 133.3203125 C2.90731048 134.55566053 2.90731048 134.55566053 9 135 C9.66 106.95 10.32 78.9 11 50 C10.67 50 10.34 50 10 50 Z " fill="#FEFEFE" transform="translate(91,0)"/>
<path d="M0 0 C0 0.33 0 0.66 0 1 C-1.52367187 1.31130859 -1.52367187 1.31130859 -3.078125 1.62890625 C-16.57350902 4.57284504 -28.63646866 9.62057703 -36.6484375 21.4296875 C-43.1242813 32.32805877 -44.53306819 43.88940956 -44.375 56.375 C-44.36339844 57.55819824 -44.35179687 58.74139648 -44.33984375 59.96044922 C-43.93483672 81.64321543 -37.34116005 99.53117426 -22 115 C-14.66730699 122.02369784 -6.09575864 127.33342962 2.35083008 132.90014648 C21.94865635 145.84596906 21.94865635 145.84596906 25 155 C25.1447963 156.95475009 25.22067502 158.9151138 25.25 160.875 C25.27578125 161.90367187 25.3015625 162.93234375 25.328125 163.9921875 C24.82633719 168.59190905 23.00116461 171.12718983 19.5625 174.125 C11.36588718 178.9954511 2.15274341 179.27161849 -7.125 179.3125 C-8.53084351 179.32071777 -8.53084351 179.32071777 -9.96508789 179.32910156 C-16.74285053 179.25714947 -16.74285053 179.25714947 -19 177 C-18.16855469 176.43732422 -18.16855469 176.43732422 -17.3203125 175.86328125 C-16.59585938 175.35152344 -15.87140625 174.83976563 -15.125 174.3125 C-14.04605469 173.56419922 -14.04605469 173.56419922 -12.9453125 172.80078125 C-9.91982145 170.00007568 -9.16944694 167.26104198 -8.62890625 163.23828125 C-8.46118835 155.84882803 -9.43007844 149.96946004 -14 144 C-20.75068297 137.1751337 -28.94330854 132.28252321 -36.98046875 127.13671875 C-43.90761123 122.6213133 -50.00410137 117.68584556 -56 112 C-56.82137451 111.24686523 -57.64274902 110.49373047 -58.48901367 109.71777344 C-70.31334699 98.7981559 -77.18843776 82.97460458 -78.19067383 66.95166016 C-78.26759842 63.67372052 -78.27300849 60.40370983 -78.25 57.125 C-78.25773438 56.03058594 -78.26546875 54.93617187 -78.2734375 53.80859375 C-78.24002463 39.69165778 -76.27952852 26.6861031 -66.625 15.75 C-48.61577204 -0.90069819 -22.86853991 -0.3693515 0 0 Z " fill="#FCFCFC" transform="translate(302,8)"/>
<path d="M0 0 C0.81154541 0.03440186 1.62309082 0.06880371 2.45922852 0.10424805 C6.2639082 0.32724038 8.33161394 0.53357596 11.5625 2.6875 C3.19428666 4.51804667 -4.78195123 4.7911099 -13.3125 4.6875 C-32.30761243 4.50592477 -52.44331992 6.46700545 -67.25 19.8125 C-79.95537755 33.70900669 -79.25379811 52.98723164 -78.62841797 70.6328125 C-77.58383128 87.34619955 -70.24867514 102.00530805 -58.4375 113.6875 C-57.91784668 114.25879639 -57.39819336 114.83009277 -56.86279297 115.41870117 C-50.84236322 121.84834077 -43.7551812 126.46088669 -36.4375 131.25 C-12.77128246 146.80640446 -12.77128246 146.80640446 -9.4375 157.6875 C-8.59956159 164.07678041 -8.39599474 170.38302434 -12.4375 175.6875 C-14.9107087 178.09519324 -17.35459938 180.11411757 -20.4375 181.6875 C-23.9375 181.5625 -23.9375 181.5625 -26.4375 180.6875 C-24.94071499 177.69392998 -22.4089288 177.13573416 -19.4453125 175.78515625 C-16.03558946 173.92108587 -14.67218898 172.39156694 -13.4375 168.6875 C-12.61207829 161.9488113 -13.7261357 156.39333708 -17.4375 150.6875 C-24.90779287 141.68961607 -36.65197815 135.85089718 -46.4375 129.6875 C-47.56011252 146.67000009 -47.96331698 163.67744537 -48.4375 180.6875 C-43.8175 180.6875 -39.1975 180.6875 -34.4375 180.6875 C-35.4275 182.3375 -36.4175 183.9875 -37.4375 185.6875 C-37.82339016 188.19450056 -37.82339016 188.19450056 -37.66796875 190.7890625 C-37.64009277 191.74973633 -37.6122168 192.71041016 -37.58349609 193.70019531 C-37.53531738 194.68600586 -37.48713867 195.67181641 -37.4375 196.6875 C-37.39834473 197.63463867 -37.35918945 198.58177734 -37.31884766 199.55761719 C-37.17581498 202.39776777 -36.97093994 205.22743001 -36.75 208.0625 C-36.69650391 209.02027344 -36.64300781 209.97804687 -36.58789062 210.96484375 C-36.22298727 215.52772224 -35.94317133 218.02038968 -33.125 221.73828125 C-30.75647114 223.4561532 -28.889115 224.60986127 -26.125 225.5 C-24.908125 225.891875 -23.69125 226.28375 -22.4375 226.6875 C-22.4375 227.0175 -22.4375 227.3475 -22.4375 227.6875 C-26.52681682 227.73751046 -30.61601141 227.77350357 -34.70556641 227.79736328 C-36.09231676 227.80732603 -37.47904665 227.82090118 -38.86572266 227.83837891 C-46.06327203 227.92672428 -52.86852966 227.81069065 -59.90332031 226.15527344 C-66.3797506 224.95981675 -73.14578634 225.28405742 -79.71289062 225.20898438 C-91.50668375 224.93809053 -91.50668375 224.93809053 -96.4375 221.6875 C-100.61622586 216.31905724 -103.09861748 210.10831881 -105.51953125 203.8125 C-105.89623459 202.85327637 -106.27293793 201.89405273 -106.66105652 200.90576172 C-107.86494096 197.83590507 -109.05791838 194.76195657 -110.25 191.6875 C-111.3957212 188.75225033 -112.54381982 185.81793973 -113.69235229 182.88378906 C-114.50080327 180.81838389 -115.30834421 178.75262229 -116.11502075 176.68652344 C-122.78143025 159.64432518 -129.62608093 142.67211508 -136.4375 125.6875 C-136.44336624 126.78917511 -136.44923248 127.89085022 -136.45527649 129.02590942 C-136.51251695 139.4137817 -136.58528567 149.80144491 -136.67321491 160.18910408 C-136.7179212 165.52937432 -136.7571769 170.86956822 -136.78393555 176.20996094 C-136.80996573 181.3648118 -136.85036647 186.51936895 -136.90068626 191.67403793 C-136.91735684 193.63954894 -136.92886993 195.60511074 -136.93511391 197.57068253 C-136.94475281 200.32624268 -136.97280978 203.08105107 -137.00512695 205.83642578 C-137.00369186 206.64706985 -137.00225677 207.45771393 -137.0007782 208.29292297 C-137.0946365 213.96049462 -138.18855866 218.18204811 -142.09423828 222.53320312 C-145.61026337 224.26520632 -149.09121074 224.1552735 -152.9296875 224.15625 C-153.75324738 224.16386353 -154.57680725 224.17147705 -155.42532349 224.17932129 C-157.16519139 224.19011117 -158.905124 224.1929799 -160.64501953 224.18847656 C-163.29700755 224.18750567 -165.94608694 224.22910511 -168.59765625 224.2734375 C-170.29166066 224.27864606 -171.98567508 224.28133267 -173.6796875 224.28125 C-174.46737518 224.29764526 -175.25506287 224.31404053 -176.06661987 224.33093262 C-176.81404449 224.3216272 -177.56146912 224.31232178 -178.33154297 224.30273438 C-178.9812204 224.30478882 -179.63089783 224.30684326 -180.30026245 224.30895996 C-183.7468643 223.30676671 -186.25925795 221.48223249 -188.4375 218.6875 C-189.02361465 215.70793958 -189.21316251 213.54793718 -189.13452148 210.578125 C-189.13819418 209.35869154 -189.13819418 209.35869154 -189.14194107 208.11462307 C-189.14278237 205.38800811 -189.10056804 202.66376716 -189.05859375 199.9375 C-189.0503931 197.97690217 -189.04483044 196.0162918 -189.04170227 194.05567932 C-189.02540137 188.71500009 -188.97150517 183.37529001 -188.91020203 178.0349617 C-188.85125583 172.42959893 -188.82345907 166.82407804 -188.79199219 161.21850586 C-188.73440764 151.69737775 -188.65447869 142.17662844 -188.56396484 132.65576172 C-188.44530767 119.97477021 -188.39135439 107.29416472 -188.35536194 94.61270142 C-188.3302525 85.8113853 -188.28905076 77.01017419 -188.24235821 68.20894814 C-188.21019092 62.1287954 -188.18301491 56.04872844 -188.16842651 49.96850586 C-188.15360562 44.23462411 -188.11909674 38.50118407 -188.06963158 32.76749992 C-188.05462174 30.65611446 -188.0464253 28.54466806 -188.04549599 26.43322945 C-188.04315795 23.54558503 -188.01636256 20.65916244 -187.98339844 17.77172852 C-187.98843101 16.93252365 -187.99346357 16.09331879 -187.99864864 15.22868347 C-187.90408446 9.93331147 -186.96559422 6.87726813 -183.4375 2.6875 C-179.83222144 0.28398096 -177.15809962 0.36476144 -172.98828125 0.3515625 C-171.89111031 0.3415773 -171.89111031 0.3415773 -170.77177429 0.33139038 C-169.22263092 0.32126829 -167.67344398 0.31657323 -166.12426758 0.31689453 C-163.77545257 0.31254711 -161.42855743 0.27629931 -159.08007812 0.23828125 C-144.64271685 0.11451426 -144.64271685 0.11451426 -139.98803711 3.06567383 C-136.30755694 6.91537148 -134.43337185 11.82450869 -132.4375 16.6875 C-132.00888672 17.72890137 -131.58027344 18.77030273 -131.13867188 19.84326172 C-129.7807974 23.25608744 -128.47953201 26.6867247 -127.1875 30.125 C-126.15701533 32.83512778 -125.12025905 35.54283013 -124.08203125 38.25 C-123.80388077 38.97605942 -123.52573029 39.70211884 -123.239151 40.45018005 C-118.46288525 52.87270533 -113.45401645 65.20483875 -108.49316406 77.55444336 C-108.11464798 78.49751343 -107.7361319 79.4405835 -107.34614563 80.41223145 C-106.63677266 82.1792041 -105.92654049 83.94583219 -105.21525574 85.71203613 C-104.89341812 86.51338989 -104.57158051 87.31474365 -104.23999023 88.14038086 C-103.96307846 88.82853378 -103.68616669 89.51668671 -103.40086365 90.22569275 C-102.04170092 93.69893639 -100.7420722 97.19338843 -99.4375 100.6875 C-99.42870064 98.99407219 -99.42870064 98.99407219 -99.41972351 97.26643372 C-99.36251514 86.62807829 -99.28976327 75.98992766 -99.20178509 65.35178089 C-99.15705411 59.88256617 -99.11780388 54.41342642 -99.09106445 48.9440918 C-99.06505887 43.6660554 -99.02467565 38.38830706 -98.97431374 33.11044884 C-98.95762649 31.09666209 -98.9461238 29.08282549 -98.93988609 27.06897926 C-98.93026532 24.24855971 -98.90223003 21.42888021 -98.86987305 18.60864258 C-98.87202568 17.35923134 -98.87202568 17.35923134 -98.8742218 16.08457947 C-98.78284301 10.45410453 -97.70081047 7.10959285 -93.76708984 2.89990234 C-90.32420374 1.10810058 -86.95476095 1.25916138 -83.1640625 1.2890625 C-82.36269867 1.28619232 -81.56133484 1.28332214 -80.73568726 1.28036499 C-79.04285983 1.27832665 -77.35000872 1.28384044 -75.65722656 1.29638672 C-73.07823384 1.31240229 -70.5008182 1.29655284 -67.921875 1.27734375 C-66.27343406 1.27932705 -64.62499411 1.28317251 -62.9765625 1.2890625 C-62.2107486 1.28298981 -61.44493469 1.27691711 -60.65591431 1.2706604 C-55.77072806 1.33416938 -52.82134115 2.37943306 -48.4375 4.6875 C-46.20568737 4.76715696 -46.20568737 4.76715696 -44.109375 4.140625 C-43.31909912 3.9552417 -42.52882324 3.7698584 -41.71459961 3.57885742 C-40.88065674 3.36720947 -40.04671387 3.15556152 -39.1875 2.9375 C-26.04701783 -0.02178617 -13.43239161 -0.59668286 0 0 Z M-182.37060547 5.37719727 C-185.69427585 10.70033059 -185.1628035 16.02144234 -185.14453125 22.17578125 C-185.15795948 23.6122844 -185.17348667 25.04876916 -185.19090271 26.48522949 C-185.23242416 30.47804007 -185.24177129 34.47038051 -185.24519348 38.46338272 C-185.25164445 41.86785038 -185.27525189 45.27210926 -185.29898643 48.67649364 C-185.36721686 58.49937217 -185.39502764 68.32210787 -185.41260338 78.14519024 C-185.43016849 87.08646543 -185.4681395 96.02757177 -185.51123047 104.96875 C-185.58445692 120.28516728 -185.63361587 135.60156341 -185.66982812 150.91811043 C-185.68246262 156.04883487 -185.70136452 161.17951477 -185.72232056 166.31021118 C-185.74776678 172.63165434 -185.76172143 178.95300973 -185.76173991 185.27450573 C-185.76198369 188.55028747 -185.7687086 191.82583084 -185.78503227 195.10157776 C-185.80196324 198.69002205 -185.80036684 202.27798767 -185.79394531 205.86645508 C-185.80316419 206.92704289 -185.81238306 207.98763071 -185.82188129 209.08035755 C-185.81630805 210.04571776 -185.81073481 211.01107798 -185.80499268 212.00569153 C-185.80645924 212.84293668 -185.8079258 213.68018183 -185.8094368 214.54279804 C-185.34511834 217.22020107 -184.62031429 218.10188348 -182.4375 219.6875 C-179.76636765 219.97375979 -177.33347935 220.08425649 -174.6640625 220.05078125 C-173.90330414 220.05127975 -173.14254578 220.05177826 -172.35873413 220.05229187 C-170.74987171 220.04995254 -169.14100555 220.0402322 -167.53222656 220.02368164 C-165.07844001 220.00015285 -162.62574524 220.00311357 -160.171875 220.00976562 C-158.60676439 220.00418632 -157.04165835 219.99707485 -155.4765625 219.98828125 C-154.74619781 219.98919266 -154.01583313 219.99010406 -153.26333618 219.99104309 C-149.25214264 219.93568381 -145.94430426 219.72164008 -142.4375 217.6875 C-140.64703645 214.80134189 -140.18320653 212.58927671 -140.1590271 209.22027588 C-140.14786362 208.33129105 -140.13670013 207.44230621 -140.12519836 206.52638245 C-140.12303818 205.558936 -140.12087799 204.59148956 -140.11865234 203.59472656 C-140.10358391 202.05766304 -140.10358391 202.05766304 -140.08821106 200.48954773 C-140.05731946 197.10241253 -140.04032713 193.71535658 -140.0234375 190.328125 C-140.00473068 187.97970902 -139.98515764 185.63129979 -139.9647522 183.28289795 C-139.91337374 177.10158262 -139.87377849 170.92024549 -139.83660889 164.73883057 C-139.79660512 158.43130066 -139.74549623 152.12386192 -139.6953125 145.81640625 C-139.59848551 133.44016815 -139.51410232 121.06387864 -139.4375 108.6875 C-138.32326783 111.36626992 -137.21169005 114.04609189 -136.1015625 116.7265625 C-135.63375366 117.85010132 -135.63375366 117.85010132 -135.15649414 118.99633789 C-132.81782557 124.65144079 -130.72652438 130.34791632 -128.7734375 136.1484375 C-127.6629836 139.09016624 -126.45086007 141.88762628 -125.1328125 144.73828125 C-122.14522258 151.22776361 -119.5323945 157.84558566 -116.9375 164.5 C-116.47730469 165.66853516 -116.01710938 166.83707031 -115.54296875 168.04101562 C-112.75507929 175.15995027 -110.10942134 182.31063342 -107.58203125 189.52563477 C-106.08772619 193.65378 -104.41788291 197.69260733 -102.6875 201.7265625 C-101.8167006 203.78926858 -100.9862282 205.86926802 -100.1875 207.9609375 C-99.775 209.02570313 -99.3625 210.09046875 -98.9375 211.1875 C-98.5765625 212.1465625 -98.215625 213.105625 -97.84375 214.09375 C-96.03038176 217.43840697 -94.79580949 218.82804791 -91.4375 220.6875 C-87.81722674 221.15857529 -84.2676465 221.06471129 -80.625 220.9375 C-79.64595703 220.91945312 -78.66691406 220.90140625 -77.65820312 220.8828125 C-75.25029229 220.83582887 -72.84440665 220.77015694 -70.4375 220.6875 C-70.57099854 220.04280762 -70.70449707 219.39811523 -70.84204102 218.73388672 C-72.27202696 211.43113901 -73.00627179 204.24037425 -73.375 196.8125 C-73.45556641 195.71164063 -73.53613281 194.61078125 -73.61914062 193.4765625 C-74.01089422 185.50606967 -74.01089422 185.50606967 -71.171875 181.453125 C-67.68784233 179.20343533 -65.51088649 179.22636191 -61.4375 179.6875 C-60.7775 180.0175 -60.1175 180.3475 -59.4375 180.6875 C-58.06407169 180.7564472 -56.68747898 180.77217708 -55.3125 180.75 C-53.394375 180.7190625 -53.394375 180.7190625 -51.4375 180.6875 C-51.15736282 172.8962099 -50.9654635 165.10622783 -50.83325195 157.31103516 C-50.77811314 154.66275512 -50.70317769 152.01480724 -50.60766602 149.36767578 C-49.21734379 134.45584953 -49.21734379 134.45584953 -53.76367188 120.87792969 C-56.53033811 118.40351693 -59.24067908 116.55366884 -62.4375 114.6875 C-77.3468066 99.69746102 -81.90378772 78.61567829 -81.9375 58.1875 C-81.72840008 43.21789582 -79.8265781 29.47734182 -69.3125 17.9375 C-65.33227709 14.20884875 -60.59747712 11.73156135 -55.81640625 9.16796875 C-55.03136719 8.67941406 -54.24632812 8.19085937 -53.4375 7.6875 C-53.4375 7.0275 -53.4375 6.3675 -53.4375 5.6875 C-56.51669755 4.14790123 -59.76713648 4.48284882 -63.1484375 4.44921875 C-64.29525497 4.43711113 -64.29525497 4.43711113 -65.46524048 4.42475891 C-67.08422581 4.41092187 -68.70324026 4.40019801 -70.32226562 4.39233398 C-72.79613566 4.37511391 -75.26867146 4.33122649 -77.7421875 4.28710938 C-79.31509434 4.27698285 -80.88801254 4.26846662 -82.4609375 4.26171875 C-83.19960052 4.24421066 -83.93826355 4.22670258 -84.6993103 4.20866394 C-88.20547103 4.22344488 -90.07019317 4.40077391 -92.87353516 6.58911133 C-95.11893996 9.60179542 -95.56512041 11.25419584 -95.59571838 14.95217896 C-95.6055072 15.84682861 -95.61529602 16.74147827 -95.62538147 17.66323853 C-95.63113693 18.64722626 -95.6368924 19.63121399 -95.64282227 20.64501953 C-95.65272186 21.67919006 -95.66262146 22.7133606 -95.67282104 23.77886963 C-95.70449838 27.20932701 -95.72921811 30.63979827 -95.75390625 34.0703125 C-95.77447039 36.44400398 -95.79546672 38.81769175 -95.81687927 41.19137573 C-95.87215567 47.44835412 -95.92154037 53.70536587 -95.96972656 59.96240234 C-96.01990098 66.34345478 -96.0756082 72.72445861 -96.13085938 79.10546875 C-96.23850904 91.63277072 -96.34012662 104.16011416 -96.4375 116.6875 C-98.29557928 111.98229746 -100.15342072 107.27700109 -102.01112747 102.57165146 C-103.03178205 99.98667856 -104.05267764 97.40180093 -105.07357788 94.81692505 C-108.77061181 85.45445845 -112.45989096 76.08903192 -116.1358757 66.71828079 C-118.53409711 60.60723152 -120.94382053 54.50078634 -123.36104202 48.39722824 C-124.88907088 44.53756607 -126.41096853 40.67567352 -127.92138672 36.80908203 C-129.43010275 32.94758341 -130.95301568 29.09197322 -132.48609543 25.2400856 C-133.05653859 23.79965483 -133.62191562 22.35720593 -134.1818428 20.91265488 C-134.95350714 18.92418967 -135.74320665 16.94383 -136.53759766 14.96435547 C-136.97866852 13.84431122 -137.41973938 12.72426697 -137.87417603 11.57028198 C-139.95390356 7.73524768 -142.56369706 5.62440147 -146.4375 3.6875 C-151.09311343 3.40486459 -155.749459 3.37382349 -160.4128418 3.33740234 C-161.96572877 3.32085638 -163.51854 3.29358358 -165.07104492 3.25537109 C-167.31469041 3.20045586 -169.55655325 3.17870862 -171.80078125 3.1640625 C-172.49053543 3.14139313 -173.18028961 3.11872375 -173.89094543 3.09536743 C-177.29980534 3.11022611 -179.41286388 3.67330768 -182.37060547 5.37719727 Z " fill="#3A3E49" transform="translate(303.4375,4.3125)"/>
<path d="M0 0 C0.71809845 -0.00776459 1.4361969 -0.01552917 2.17605591 -0.02352905 C20.67464743 -0.18126181 20.67464743 -0.18126181 27.85546875 5.8984375 C30.88066553 10.11113108 30.90782112 14.97386827 31.1875 20 C31.25525635 20.9789624 31.3230127 21.9579248 31.39282227 22.96655273 C31.57664826 25.76856289 31.72700232 28.57091635 31.875 31.375 C31.97039062 32.67308594 32.06578125 33.97117188 32.1640625 35.30859375 C32.50652876 42.52742193 32.50652876 42.52742193 29.5 46.5625 C25.39610407 49.39614243 23.7663323 49.39818934 18.8125 48.9375 C-0.49202128 46.77128985 -0.49202128 46.77128985 -18.125 52.5 C-21.12859574 56.81766887 -21.61115826 60.52388435 -20.75 65.57421875 C-16.87037322 79.46813214 -4.46500725 87.54196522 6.80932617 95.18920898 C26.09953201 108.33703667 41.60860689 123.04617687 47.62890625 146.28515625 C51.08923758 164.65153021 50.94633569 185.19270537 40.4296875 201.203125 C39.91664063 201.91984375 39.40359375 202.6365625 38.875 203.375 C38.42382812 204.00921875 37.97265625 204.6434375 37.5078125 205.296875 C26.84533414 218.9111129 8.62565919 225.13197153 -7.95344543 227.15812683 C-11.33397734 227.49574058 -14.71134488 227.55702128 -18.10546875 227.578125 C-18.84017899 227.58382507 -19.57488922 227.58952515 -20.3318634 227.59539795 C-21.87723381 227.6047773 -23.42262358 227.61135351 -24.96801758 227.61523438 C-27.28959483 227.62490459 -29.6102715 227.6559804 -31.93164062 227.6875 C-54.96143079 227.85600241 -54.96143079 227.85600241 -63.125 220.375 C-65.17296882 217.30304676 -65.44746319 216.1949142 -65.7578125 212.65625 C-65.88349609 211.25632813 -65.88349609 211.25632813 -66.01171875 209.828125 C-66.12966797 208.36632812 -66.12966797 208.36632812 -66.25 206.875 C-66.33636719 205.93140625 -66.42273438 204.9878125 -66.51171875 204.015625 C-68.14962819 184.98467722 -68.14962819 184.98467722 -65.0625 180.6875 C-62.125 178.375 -62.125 178.375 -58.8125 177.875 C-55.125 178.375 -55.125 178.375 -51.53515625 179.38671875 C-46.64467303 180.62919324 -41.90065642 180.7185423 -36.875 180.6875 C-35.48945923 180.68121582 -35.48945923 180.68121582 -34.07592773 180.67480469 C-24.77240086 180.52136464 -15.40271785 179.6951234 -8.125 173.375 C-5.0116047 168.51637966 -5.64814252 162.92591906 -6.125 157.375 C-9.8308809 146.64745001 -21.96509631 139.62987986 -31.1875 133.8125 C-36.76923901 130.29096406 -42.06383211 126.61568712 -47.125 122.375 C-47.94613281 121.69953125 -48.76726562 121.0240625 -49.61328125 120.328125 C-63.76652079 108.21518554 -73.63335372 91.14955541 -75.125 72.375 C-75.36009703 67.83266653 -75.45814171 63.29798081 -75.5 58.75 C-75.51409912 57.63012695 -75.52819824 56.51025391 -75.54272461 55.35644531 C-75.46026402 41.10641985 -72.37695007 27.82331806 -62.5 17.125 C-55.03890822 10.19074103 -46.06004883 5.47562868 -36.125 3.375 C-34.908125 3.09785156 -33.69125 2.82070312 -32.4375 2.53515625 C-21.6874687 0.3451279 -10.93208129 0.05462956 0 0 Z M-40.125 7.375 C-41.14851563 7.67535156 -42.17203125 7.97570312 -43.2265625 8.28515625 C-52.36478245 11.47387046 -60.80345136 18.30001326 -66.125 26.375 C-74.42579099 44.30986966 -75.67448056 68.58370511 -69.125 87.375 C-61.14089039 107.54459526 -46.89134626 120.5721359 -29.02978516 132.12988281 C-25.98527448 134.12001412 -22.99020737 136.17949022 -20 138.25 C-18.98679687 138.94867188 -17.97359375 139.64734375 -16.9296875 140.3671875 C-10.56662122 144.92236308 -5.89618279 149.19769645 -3.3125 156.75 C-2.37053571 169.9375 -2.37053571 169.9375 -6.125 175.375 C-12.64654051 182.50793493 -24.31787184 183.00890235 -33.44921875 183.5 C-39.4839436 183.65548405 -45.18308115 182.80549378 -51.12890625 181.83203125 C-54.61979212 181.29952324 -57.61379029 180.99334677 -61.125 181.375 C-63.24307367 182.94615324 -64.03551624 183.81146538 -64.453125 186.44140625 C-64.42734375 187.26511719 -64.4015625 188.08882812 -64.375 188.9375 C-64.34664063 189.90042969 -64.31828125 190.86335937 -64.2890625 191.85546875 C-64.20785156 193.59763672 -64.20785156 193.59763672 -64.125 195.375 C-64.07030555 196.89192683 -64.01561853 198.40885393 -63.9609375 199.92578125 C-63.89251233 201.53393558 -63.82219611 203.14201055 -63.75 204.75 C-63.71938477 205.52287354 -63.68876953 206.29574707 -63.65722656 207.09204102 C-63.44017152 211.21384446 -63.10304644 214.66097574 -61.125 218.375 C-52.66954602 225.77352224 -40.566834 224.71211583 -30 224.625 C-29.31146942 224.62123352 -28.62293884 224.61746704 -27.9135437 224.61358643 C-5.55453806 224.46992402 15.57109579 221.91377868 32.6875 206.0625 C44.83316682 192.92890813 46.75406173 177.4086351 46.2578125 160.2421875 C45.24477462 140.45927792 36.67604784 124.46025952 22.375 110.9375 C16.5634849 105.87175053 10.21031746 101.56228608 3.8828125 97.17578125 C-0.58835002 94.07132694 -4.88530657 90.78720941 -9.125 87.375 C-10.176875 86.59125 -11.22875 85.8075 -12.3125 85 C-19.04982879 78.71182647 -23.38512519 71.14705869 -24.07421875 61.97265625 C-24.14979882 58.10644517 -24.04479534 54.80320597 -22.125 51.375 C-15.64669558 45.29023744 -7.82707844 45.1996814 0.671875 45.3828125 C2.13931625 45.4003081 3.60676457 45.41721833 5.07421875 45.43359375 C7.36104195 45.46467678 9.64750613 45.50045212 11.93408203 45.54638672 C14.15922605 45.58863929 16.38394041 45.61212089 18.609375 45.6328125 C19.29376648 45.65143341 19.97815796 45.67005432 20.68328857 45.6892395 C23.43939657 45.7041649 25.4302864 45.64251954 27.82226562 44.20361328 C29.30210847 41.63310704 29.13756426 39.81043596 28.984375 36.859375 C28.93410156 35.77269531 28.88382812 34.68601562 28.83203125 33.56640625 C28.76371094 32.43074219 28.69539063 31.29507813 28.625 30.125 C28.57214844 29.00480469 28.51929688 27.88460937 28.46484375 26.73046875 C28.44805319 16.5694739 28.44805319 16.5694739 24.75 7.5625 C19.43181907 3.51605799 13.76399378 3.11414957 7.23828125 3.0390625 C6.16817307 3.0266301 6.16817307 3.0266301 5.07644653 3.01394653 C2.77991785 2.99471555 0.48409632 2.99461223 -1.8125 3 C-2.59478973 2.99987915 -3.37707947 2.9997583 -4.18307495 2.99963379 C-16.51939113 3.02682823 -28.24012554 3.80067308 -40.125 7.375 Z " fill="#070101" transform="translate(332.125,5.625)"/>
<path d="M0 0 C0.63518555 0.16363037 1.27037109 0.32726074 1.92480469 0.49584961 C4.23767143 1.05774018 6.38861375 1.20974549 8.765625 1.31640625 C9.65507812 1.35830078 10.54453125 1.40019531 11.4609375 1.44335938 C12.38132813 1.48267578 13.30171875 1.52199219 14.25 1.5625 C15.18585938 1.60568359 16.12171875 1.64886719 17.0859375 1.69335938 C19.39048641 1.7991805 21.69513839 1.90126557 24 2 C23.97679687 2.68320313 23.95359375 3.36640625 23.9296875 4.0703125 C23.79558699 11.56078363 24.16750372 18.9714065 24.75 26.4375 C24.8425708 27.85796631 24.8425708 27.85796631 24.93701172 29.30712891 C25.42581971 35.03360092 26.33021581 38.53211234 30 43 C2.40626999 43.7428023 2.40626999 43.7428023 -6.25 37.75 C-10.23493286 31.48796265 -9.40961771 22.46444425 -9.75 15.25 C-9.81832031 14.11433594 -9.88664063 12.97867188 -9.95703125 11.80859375 C-10.00730469 10.72191406 -10.05757812 9.63523438 -10.109375 8.515625 C-10.16061523 7.52852539 -10.21185547 6.54142578 -10.26464844 5.52441406 C-10 3 -10 3 -8.70800781 1.17089844 C-5.91207618 -0.74580941 -3.28749525 -0.23070142 0 0 Z " fill="#FAFAFA" transform="translate(242,186)"/>
<path d="M0 0 C0.81154541 0.03440186 1.62309082 0.06880371 2.45922852 0.10424805 C6.2639082 0.32724038 8.33161394 0.53357596 11.5625 2.6875 C3.19449215 4.51800172 -4.78208457 4.79178868 -13.3125 4.6875 C-25.43382717 4.56304913 -36.94593543 5.05872428 -48.484375 9.19921875 C-50.4375 9.6875 -50.4375 9.6875 -53.4375 8.6875 C-53.1075 7.6975 -52.7775 6.7075 -52.4375 5.6875 C-57.79432133 5.6133795 -63.15084462 5.55891224 -68.50805664 5.52270508 C-70.33070067 5.5076124 -72.15330836 5.48713605 -73.97583008 5.46118164 C-76.594655 5.42481897 -79.21300007 5.40777876 -81.83203125 5.39453125 C-82.64775101 5.37904739 -83.46347076 5.36356354 -84.3039093 5.34761047 C-88.52074682 5.20590291 -88.52074682 5.20590291 -92.11430359 7.08378601 C-94.35741959 9.8024425 -94.5677184 11.58010893 -94.59571838 15.02810669 C-94.6055072 15.93958466 -94.61529602 16.85106262 -94.62538147 17.79016113 C-94.63113693 18.79285034 -94.6368924 19.79553955 -94.64282227 20.82861328 C-94.65272186 21.88229095 -94.66262146 22.93596863 -94.67282104 24.02157593 C-94.70450001 27.51696498 -94.72921876 31.01236764 -94.75390625 34.5078125 C-94.77447025 36.92634441 -94.79546657 39.34487267 -94.81687927 41.76339722 C-94.87215713 48.13874368 -94.92154118 54.51412288 -94.96972656 60.88952637 C-95.01989992 67.39122441 -95.07560769 73.89287473 -95.13085938 80.39453125 C-95.23851082 93.15881315 -95.34012805 105.92313576 -95.4375 118.6875 C-97.9403441 116.1846559 -98.64815966 113.95127771 -99.9296875 110.640625 C-100.31062813 109.66447739 -100.31062813 109.66447739 -100.69926453 108.66860962 C-101.26820447 107.21018953 -101.83496898 105.75091953 -102.39993286 104.29095459 C-103.33120286 101.88926647 -104.27150072 99.49130474 -105.21459961 97.09423828 C-108.45843634 88.84844712 -111.69280253 80.59899291 -114.91200256 72.34355164 C-117.978117 64.48135788 -121.05859537 56.62501058 -124.15835571 48.77601624 C-125.73992823 44.76941499 -127.31409434 40.76022331 -128.87176514 36.7442627 C-130.36376825 32.89796254 -131.87379757 29.05922446 -133.39713478 25.22523117 C-133.96298946 23.79169569 -134.52225139 22.35553823 -135.07449913 20.91670609 C-135.8401145 18.92512134 -136.62901976 16.94433775 -137.42407227 14.96435547 C-137.86292252 13.84431122 -138.30177277 12.72426697 -138.75392151 11.57028198 C-140.81378106 8.04319605 -142.86612824 6.61276741 -146.4375 4.6875 C-150.11846639 4.109492 -150.11846639 4.109492 -154.06640625 4.2265625 C-154.77852768 4.22747894 -155.49064911 4.22839539 -156.22434998 4.2293396 C-157.72116818 4.23534997 -159.2179758 4.25101858 -160.71459961 4.27587891 C-162.99703592 4.3124525 -165.27784758 4.31689731 -167.56054688 4.31640625 C-176.23474847 4.20044416 -176.23474847 4.20044416 -184.4375 6.6875 C-184.4375 3.6875 -184.4375 3.6875 -182.90917969 2.02709961 C-179.59029674 0.22833324 -176.57363252 0.23841558 -172.890625 0.25390625 C-172.16059265 0.2486644 -171.4305603 0.24342255 -170.67840576 0.23802185 C-169.13522611 0.2316096 -167.59199754 0.23292839 -166.04882812 0.24145508 C-163.70872821 0.24992318 -161.37110628 0.2212661 -159.03125 0.18945312 C-144.67211374 0.10696251 -144.67211374 0.10696251 -139.99023438 3.06787109 C-136.30474492 6.91213792 -134.43295301 11.82552921 -132.4375 16.6875 C-132.00888672 17.72890137 -131.58027344 18.77030273 -131.13867188 19.84326172 C-129.7807974 23.25608744 -128.47953201 26.6867247 -127.1875 30.125 C-126.15701533 32.83512778 -125.12025905 35.54283013 -124.08203125 38.25 C-123.80388077 38.97605942 -123.52573029 39.70211884 -123.239151 40.45018005 C-118.46288525 52.87270533 -113.45401645 65.20483875 -108.49316406 77.55444336 C-108.11464798 78.49751343 -107.7361319 79.4405835 -107.34614563 80.41223145 C-106.63677266 82.1792041 -105.92654049 83.94583219 -105.21525574 85.71203613 C-104.89341812 86.51338989 -104.57158051 87.31474365 -104.23999023 88.14038086 C-103.96307846 88.82853378 -103.68616669 89.51668671 -103.40086365 90.22569275 C-102.04170092 93.69893639 -100.7420722 97.19338843 -99.4375 100.6875 C-99.42870064 98.99407219 -99.42870064 98.99407219 -99.41972351 97.26643372 C-99.36251514 86.62807829 -99.28976327 75.98992766 -99.20178509 65.35178089 C-99.15705411 59.88256617 -99.11780388 54.41342642 -99.09106445 48.9440918 C-99.06505887 43.6660554 -99.02467565 38.38830706 -98.97431374 33.11044884 C-98.95762649 31.09666209 -98.9461238 29.08282549 -98.93988609 27.06897926 C-98.93026532 24.24855971 -98.90223003 21.42888021 -98.86987305 18.60864258 C-98.87202568 17.35923134 -98.87202568 17.35923134 -98.8742218 16.08457947 C-98.78284301 10.45410453 -97.70081047 7.10959285 -93.76708984 2.89990234 C-90.32420374 1.10810058 -86.95476095 1.25916138 -83.1640625 1.2890625 C-82.36269867 1.28619232 -81.56133484 1.28332214 -80.73568726 1.28036499 C-79.04285983 1.27832665 -77.35000872 1.28384044 -75.65722656 1.29638672 C-73.07823384 1.31240229 -70.5008182 1.29655284 -67.921875 1.27734375 C-66.27343406 1.27932705 -64.62499411 1.28317251 -62.9765625 1.2890625 C-62.2107486 1.28298981 -61.44493469 1.27691711 -60.65591431 1.2706604 C-55.77072806 1.33416938 -52.82134115 2.37943306 -48.4375 4.6875 C-46.20568737 4.76715696 -46.20568737 4.76715696 -44.109375 4.140625 C-43.31909912 3.9552417 -42.52882324 3.7698584 -41.71459961 3.57885742 C-40.88065674 3.36720947 -40.04671387 3.15556152 -39.1875 2.9375 C-26.04701783 -0.02178617 -13.43239161 -0.59668286 0 0 Z " fill="#343843" transform="translate(303.4375,4.3125)"/>
<path d="M0 0 C-1 2 -1 2 -4.02734375 3.04296875 C-5.3304124 3.42555969 -6.63381989 3.80699781 -7.9375 4.1875 C-18.11615523 7.38764409 -27.10307925 12.84701869 -33 22 C-41.28627811 39.95001543 -42.55411992 64.19539419 -36 83 C-27.96874199 103.28870235 -13.52956608 115.94759442 4.37109375 127.609375 C9.38354658 130.88313739 14.22438923 134.39071001 19 138 C19.86882812 138.65355469 20.73765625 139.30710938 21.6328125 139.98046875 C25.54755899 143.32027722 28.14825588 147.51028641 29.8125 152.375 C30.75809935 165.61339093 30.75809935 165.61339093 27 171 C22.85020267 175.24411091 19.92228163 176.6446631 14 177 C15 174 15 174 16.7421875 173.0078125 C18.15777788 172.42187216 19.57443982 171.83851358 20.9921875 171.2578125 C23.71100041 169.55458729 24.65909225 167.90116153 26 165 C26.87643126 158.61579971 26.81417035 152.39244774 23 147 C16.82098423 139.88476971 8.86161535 134.43593539 0.9375 129.4375 C-4.64423901 125.91596406 -9.93883211 122.24068712 -15 118 C-15.82113281 117.32453125 -16.64226562 116.6490625 -17.48828125 115.953125 C-31.64152079 103.84018554 -41.50835372 86.77455541 -43 68 C-43.23509703 63.45766653 -43.33314171 58.92298081 -43.375 54.375 C-43.38909912 53.25512695 -43.40319824 52.13525391 -43.41772461 50.98144531 C-43.33526402 36.73141985 -40.25195007 23.44831806 -30.375 12.75 C-23.27585051 6.15212633 -10.22329969 -3.34580717 0 0 Z " fill="#140B0B" transform="translate(300,10)"/>
<path d="M0 0 C0.33 1.32 0.66 2.64 1 4 C-1.70789471 6.08299593 -4.47883871 7.94116944 -7.375 9.75 C-15.29592183 15.04792805 -19.05441928 21.46553737 -23 30 C-23.66212769 31.33559318 -24.3272242 32.66973877 -25 34 C-25.66 34 -26.32 34 -27 34 C-26.57282585 24.38858169 -21.10498791 16.23319332 -14.2265625 9.79296875 C-4.54901961 2 -4.54901961 2 0 2 C0 1.34 0 0.68 0 0 Z " fill="#414550" transform="translate(250,10)"/>
<path d="M0 0 C-1 2 -1 2 -4.2734375 3.21875 C-5.63828249 3.6532612 -7.00561351 4.08002087 -8.375 4.5 C-13.91566284 6.21766188 -13.91566284 6.21766188 -19 9 C-19.99 8.67 -20.98 8.34 -22 8 C-17.48062318 2.24806587 -7.20021701 -2.31435547 0 0 Z " fill="#1C1919" transform="translate(300,10)"/>
<path d="M0 0 C0.33 1.32 0.66 2.64 1 4 C-1.85306797 6.32472205 -4.54074837 7.7508258 -8 9 C-7.375 6.625 -7.375 6.625 -6 4 C-2.875 2.6875 -2.875 2.6875 0 2 C0 1.34 0 0.68 0 0 Z " fill="#4C505A" transform="translate(250,10)"/>
<path d="M0 0 C0.66 0.33 1.32 0.66 2 1 C-2 8.71428571 -2 8.71428571 -6 10 C-4.79157144 5.56909529 -3.48331435 3.01887244 0 0 Z " fill="#171515" transform="translate(266,30)"/>
<path d="M0 0 C0.99 0.33 1.98 0.66 3 1 C1.06745228 3.0245738 -0.63158688 4.42105792 -3 6 C-3.99 5.67 -4.98 5.34 -6 5 C-2.25 1.125 -2.25 1.125 0 0 Z " fill="#141212" transform="translate(284,13)"/>
</svg>
