<?xml version="1.0" encoding="UTF-8"?>
<svg version="1.1" xmlns="http://www.w3.org/2000/svg" width="606" height="233">
<path d="M0 0 C2.62385166 0.49826275 5.1883501 1.11594411 7.77563477 1.77758789 C22.53822605 5.52041264 36.8619573 5.3615406 51.98486328 4.90234375 C53.28358116 4.87333229 53.28358116 4.87333229 54.60853577 4.84373474 C56.23329357 4.80597209 57.8577861 4.75085385 59.48118591 4.67445374 C65.08402153 4.55156866 69.42083771 5.66199303 74 9 C75.90917969 11.54321289 75.90917969 11.54321289 77.171875 14.41015625 C77.65076172 15.47766113 78.12964844 16.54516602 78.62304688 17.64501953 C79.07744141 18.75216309 79.53183594 19.85930664 80 21 C80.64291992 22.56210205 80.64291992 22.56210205 81.29882812 24.15576172 C82.6567026 27.56858744 83.95796799 30.9992247 85.25 34.4375 C86.28048467 37.14762778 87.31724095 39.85533013 88.35546875 42.5625 C88.63361923 43.28855942 88.91176971 44.01461884 89.198349 44.76268005 C93.97461475 57.18520533 98.98348355 69.51733875 103.94433594 81.86694336 C104.51211006 83.28154846 104.51211006 83.28154846 105.09135437 84.72473145 C105.80072734 86.4917041 106.51095951 88.25833219 107.22224426 90.02453613 C107.54408188 90.82588989 107.86591949 91.62724365 108.19750977 92.45288086 C108.47442154 93.14103378 108.75133331 93.82918671 109.03663635 94.53819275 C110.39579908 98.01143639 111.6954278 101.50588843 113 105 C113.00586624 103.87104813 113.01173248 102.74209625 113.01777649 101.57893372 C113.07498486 90.94057829 113.14773673 80.30242766 113.23571491 69.66428089 C113.28044589 64.19506617 113.31969612 58.72592642 113.34643555 53.2565918 C113.37244113 47.9785554 113.41282435 42.70080706 113.46318626 37.42294884 C113.47987351 35.40916209 113.4913762 33.39532549 113.49761391 31.38147926 C113.50723468 28.56105971 113.53526997 25.74138021 113.56762695 22.92114258 C113.56619186 22.08820175 113.56475677 21.25526093 113.5632782 20.39707947 C113.65465699 14.76660453 114.73668953 11.42209285 118.67041016 7.21240234 C122.11329626 5.42060058 125.48273905 5.57166138 129.2734375 5.6015625 C130.07480133 5.59869232 130.87616516 5.59582214 131.70181274 5.59286499 C133.39464017 5.59082665 135.08749128 5.59634044 136.78027344 5.60888672 C139.35926616 5.62490229 141.9366818 5.60905284 144.515625 5.58984375 C146.16406594 5.59182705 147.81250589 5.59567251 149.4609375 5.6015625 C150.2267514 5.59548981 150.99256531 5.58941711 151.78158569 5.5831604 C156.66516418 5.64664848 159.61903544 6.68787867 164 9 C166.18317872 9.08009502 166.18317872 9.08009502 168.22265625 8.453125 C168.99770508 8.2677417 169.77275391 8.0823584 170.57128906 7.89135742 C171.39338867 7.67970947 172.21548828 7.46806152 173.0625 7.25 C180.30544131 5.60027856 187.32540201 4.52143787 194.75 4.1875 C195.53898682 4.1472168 196.32797363 4.10693359 197.14086914 4.06542969 C202.97145048 3.85954006 208.72157376 4.20301496 214.53877258 4.6073761 C219.7335835 4.9554103 224.91574413 5.12439337 230.12109375 5.2109375 C231.26818314 5.23233543 231.26818314 5.23233543 232.43844604 5.25416565 C235.56527612 5.31159873 238.69191565 5.36674545 241.8190918 5.40136719 C262.03440298 5.64249583 262.03440298 5.64249583 268.98046875 11.5234375 C272.00566553 15.73613108 272.03282112 20.59886827 272.3125 25.625 C272.38025635 26.6039624 272.4480127 27.5829248 272.51782227 28.59155273 C272.70164826 31.39356289 272.85200232 34.19591635 273 37 C273.14308594 38.94712891 273.14308594 38.94712891 273.2890625 40.93359375 C273.63152876 48.15242193 273.63152876 48.15242193 270.625 52.1875 C266.52110407 55.02114243 264.8913323 55.02318934 259.9375 54.5625 C240.63297872 52.39628985 240.63297872 52.39628985 223 58.125 C219.99640426 62.44266887 219.51384174 66.14888435 220.375 71.19921875 C224.25462678 85.09313214 236.65999275 93.16696522 247.93432617 100.81420898 C266.23257543 113.28593843 279.21475514 126.55292568 288 147 C288.14695312 145.18628906 288.14695312 145.18628906 288.296875 143.3359375 C289.79526508 126.34663322 292.52656796 107.76947027 305.8203125 95.6796875 C316.87857687 87.15808593 331.33266641 84.81647052 345 86 C357.72926625 87.79461786 368.98105304 91.46228124 377 102 C379.24063091 105.9019534 381.18845973 109.88286301 383 114 C383.02578125 112.96359375 383.0515625 111.9271875 383.078125 110.859375 C383.13441951 109.48954199 383.19176655 108.11975195 383.25 106.75 C383.26417969 106.06808594 383.27835937 105.38617188 383.29296875 104.68359375 C383.44730045 101.50436081 383.84439471 99.26043412 385.484375 96.515625 C389.22784671 94.26024143 392.73637932 94.67202918 397 95 C396.98428955 94.32533691 396.9685791 93.65067383 396.95239258 92.95556641 C396.88933921 89.84546576 396.85078869 86.73550028 396.8125 83.625 C396.77479492 82.03365234 396.77479492 82.03365234 396.73632812 80.41015625 C396.65145376 71.18714205 397.78385549 62.22416795 404 55 C412.6748237 47.62023292 424.09412451 47.30508726 435 48 C444.78675494 49.09838738 444.78675494 49.09838738 447.61962891 51.20361328 C449.5250482 53.68328699 449.37275243 55.36841223 449.36328125 58.47265625 C449.36263672 59.53677734 449.36199219 60.60089844 449.36132812 61.69726562 C449.34521484 62.80779297 449.32910156 63.91832031 449.3125 65.0625 C449.31572266 66.17689453 449.31894531 67.29128906 449.32226562 68.43945312 C449.26694139 76.73305861 449.26694139 76.73305861 447 79 C444.20727976 79.34526588 441.43981887 79.44256407 438.62890625 79.55859375 C435.61681114 79.80293125 435.61681114 79.80293125 433 83 C432.67 86.96 432.34 90.92 432 95 C441.57 95 451.14 95 461 95 C460.84197969 85.63576311 460.84197969 85.63576311 460.63964844 76.27246094 C460.62466309 74.5211084 460.62466309 74.5211084 460.609375 72.734375 C460.58842773 71.54038086 460.56748047 70.34638672 460.54589844 69.11621094 C461 66 461 66 462.6237793 63.61010742 C465.71928442 61.51261885 467.68622806 61.49781578 471.41015625 61.50390625 C473.26543945 61.50293945 473.26543945 61.50293945 475.15820312 61.50195312 C476.44662109 61.52193359 477.73503906 61.54191406 479.0625 61.5625 C480.35478516 61.55541016 481.64707031 61.54832031 482.97851562 61.54101562 C492.32519339 61.60439946 492.32519339 61.60439946 494.87402344 63.09863281 C496.5982372 66.01020627 496.33546213 68.49849202 496.29296875 71.85546875 C496.28872391 72.51710526 496.28447906 73.17874176 496.28010559 73.86042786 C496.26333693 75.9698691 496.22569099 78.07834846 496.1875 80.1875 C496.17245068 81.61912681 496.1587627 83.05076862 496.14648438 84.48242188 C496.1134403 87.98859288 496.06167167 91.49420254 496 95 C497.55460938 94.94779297 497.55460938 94.94779297 499.140625 94.89453125 C500.51040042 94.86638518 501.88019341 94.83908589 503.25 94.8125 C503.93191406 94.78736328 504.61382813 94.76222656 505.31640625 94.73632812 C508.34659196 94.69219921 510.68000635 94.85428491 513.45336914 96.1171875 C515.69116375 98.84139776 515.50178201 100.81842342 515.49609375 104.3125 C515.49673828 105.55257812 515.49738281 106.79265625 515.49804688 108.0703125 C515.47806641 109.36710937 515.45808594 110.66390625 515.4375 112 C515.44458984 113.29679687 515.45167969 114.59359375 515.45898438 115.9296875 C515.39590198 125.26588217 515.39590198 125.26588217 513.98461914 127.8828125 C510.76847689 129.69325252 507.39487717 129.30951983 503.8125 129.1875 C503.06291016 129.17396484 502.31332031 129.16042969 501.54101562 129.14648438 C499.69370233 129.11118539 497.84675934 129.05737917 496 129 C496.08449447 136.47607741 496.17941288 143.95194651 496.28752708 151.42772198 C496.33740742 154.89928401 496.3837378 158.37081683 496.421875 161.8425293 C496.46590781 165.83661816 496.52552492 169.83034381 496.5859375 173.82421875 C496.59748871 175.06709152 496.60903992 176.30996429 496.62094116 177.59049988 C496.6507457 179.33173882 496.6507457 179.33173882 496.68115234 181.1081543 C496.70113785 182.63704536 496.70113785 182.63704536 496.7215271 184.19682312 C497.01846561 187.1858794 497.58925759 189.34874159 499 192 C502.82996083 193.27665361 506.49081989 193.37060894 510.50390625 193.62109375 C513 194 513 194 515 196 C515.48893343 200.62761116 515.37040694 205.28702683 515.375 209.9375 C515.39949219 211.23880859 515.42398438 212.54011719 515.44921875 213.88085938 C515.45308594 215.12544922 515.45695313 216.37003906 515.4609375 217.65234375 C515.46915527 218.79695068 515.47737305 219.94155762 515.48583984 221.12084961 C515 224 515 224 513.10327148 225.85473633 C507.79532892 228.74499269 501.70426992 228.21678354 495.8125 228.25 C494.46961914 228.2809375 494.46961914 228.2809375 493.09960938 228.3125 C484.62861419 228.36142994 476.27708328 226.86143133 469.46484375 221.5078125 C459.35374727 211.10012386 460.85227404 192.96661539 460.90234375 179.68359375 C460.90421239 178.21672107 460.90563419 176.74984777 460.90663147 175.28297424 C460.91042152 171.45094025 460.92022118 167.61894508 460.93133545 163.78692627 C460.94343982 159.17372184 460.94796855 154.56050432 460.95378876 149.94728851 C460.96343533 142.96483213 460.98261628 135.98246069 461 129 C451.43 129 441.86 129 432 129 C432.01571045 131.79106201 432.0314209 134.58212402 432.04760742 137.45776367 C432.09730923 146.67781498 432.13045139 155.89787219 432.15543652 165.11802197 C432.17109462 170.70839205 432.19233576 176.29862491 432.22631836 181.88891602 C432.25890631 187.28352012 432.27685193 192.67799221 432.28463173 198.07268715 C432.29017622 200.13118887 432.3010032 202.18968334 432.31719017 204.24812889 C432.33895673 207.13066619 432.34196722 210.01265745 432.34057617 212.89526367 C432.35675491 214.17272713 432.35675491 214.17272713 432.3732605 215.47599792 C432.34912714 220.09545864 432.11610626 223.31251374 429 227 C426.04492188 227.59936523 426.04492188 227.59936523 422.46875 227.55859375 C421.18355469 227.55150391 419.89835937 227.54441406 418.57421875 227.53710938 C417.57140869 227.51233521 417.57140869 227.51233521 416.54833984 227.48706055 C414.50686436 227.43766609 412.46780019 227.42558185 410.42578125 227.41992188 C400.44212601 227.29475067 400.44212601 227.29475067 397 225 C396.71398051 221.91987386 396.62210172 219.04177078 396.65942383 215.96044922 C396.65898575 215.02381439 396.65854767 214.08717957 396.65809631 213.12216187 C396.66019181 210.01612741 396.68355878 206.91062804 396.70703125 203.8046875 C396.71262449 201.65520523 396.71689587 199.50571914 396.71989441 197.35623169 C396.73136453 191.69095351 396.7608504 186.02590502 396.79400635 180.36071777 C396.82466054 174.58295805 396.83838979 168.80516131 396.85351562 163.02734375 C396.88571798 151.68479476 396.9369405 140.34241646 397 129 C393.7 129 390.4 129 387 129 C387.15597656 130.43085938 387.31195313 131.86171875 387.47265625 133.3359375 C390.21598915 160.49262792 391.97111188 192.48182276 375.0390625 215.6875 C368.316206 223.31188898 357.95423034 227.75126143 348 229 C333.55186987 229.86979281 320.42219525 229.13602458 308 221 C307.113125 220.4225 306.22625 219.845 305.3125 219.25 C296.56649335 210.74037191 292.16099286 198.78723376 290 187 C289.6596875 188.02738281 289.319375 189.05476562 288.96875 190.11328125 C283.58230261 205.76503976 275.69601127 217.29237104 260.55712891 224.89111328 C245.80899479 231.9241507 231.37754918 233.18337669 215.25 233.125 C214.49598907 233.1234491 213.74197815 233.12189819 212.96511841 233.12030029 C201.56899063 233.09311295 190.17479254 232.95355566 178.78186035 232.68060303 C177.23577931 232.64393341 175.68963323 232.60989781 174.14343262 232.57867432 C166.76946832 232.42403623 159.72104025 232.12188634 152.50561523 230.45019531 C146.03191991 229.28703696 139.28405645 229.59646989 132.72460938 229.52148438 C120.93081625 229.25059053 120.93081625 229.25059053 116 226 C111.82127414 220.63155724 109.33888252 214.42081881 106.91796875 208.125 C106.54126541 207.16577637 106.16456207 206.20655273 105.77644348 205.21826172 C104.57255904 202.14840507 103.37958162 199.07445657 102.1875 196 C101.0417788 193.06475033 99.89368018 190.13043973 98.74514771 187.19628906 C97.93669673 185.13088389 97.12915579 183.06512229 96.32247925 180.99902344 C89.65606975 163.95682518 82.81141907 146.98461508 76 130 C75.99413376 131.10167511 75.98826752 132.20335022 75.98222351 133.33840942 C75.92498305 143.7262817 75.85221433 154.11394491 75.76428509 164.50160408 C75.7195788 169.84187432 75.6803231 175.18206822 75.65356445 180.52246094 C75.62753427 185.6773118 75.58713353 190.83186895 75.53681374 195.98653793 C75.52014316 197.95204894 75.50863007 199.91761074 75.50238609 201.88318253 C75.49274719 204.63874268 75.46469022 207.39355107 75.43237305 210.14892578 C75.43380814 210.95956985 75.43524323 211.77021393 75.4367218 212.60542297 C75.3428635 218.27299462 74.24894134 222.49454811 70.34326172 226.84570312 C66.82723663 228.57770632 63.34628926 228.4677735 59.5078125 228.46875 C58.68425262 228.47636353 57.86069275 228.48397705 57.01217651 228.49182129 C55.27230861 228.50261117 53.532376 228.5054799 51.79248047 228.50097656 C49.14049245 228.50000567 46.49141306 228.54160511 43.83984375 228.5859375 C42.14583934 228.59114606 40.45182492 228.59383267 38.7578125 228.59375 C37.97012482 228.61014526 37.18243713 228.62654053 36.37088013 228.64343262 C30.48840681 228.57019596 28.25163014 226.99995208 24 223 C21.97685705 222.06235979 21.97685705 222.06235979 20.01953125 221.7421875 C19.33052734 221.59136719 18.64152344 221.44054687 17.93164062 221.28515625 C16.88266602 221.08212891 16.88266602 221.08212891 15.8125 220.875 C7.24455249 219.1505355 7.24455249 219.1505355 5 216 C3.42273168 212.84546335 3.85809494 209.46259198 3.8671875 206 C3.86623077 205.20851562 3.86527405 204.41703125 3.86428833 203.6015625 C3.86360741 201.92708253 3.86545556 200.25259991 3.86962891 198.578125 C3.87497842 196.01035654 3.86968097 193.442763 3.86328125 190.875 C3.86394205 189.24999961 3.86522324 187.62499933 3.8671875 186 C3.86516327 185.22914063 3.86313904 184.45828125 3.86105347 183.6640625 C3.88503934 178.22992132 3.88503934 178.22992132 5 176 C0.7292236 175.20802599 -3.54163164 174.41647795 -7.8125 173.625 C-9.00810547 173.40328125 -10.20371094 173.1815625 -11.43554688 172.953125 C-18.62124345 171.62171528 -25.80881743 170.30146322 -33 169 C-33.11625732 169.69150146 -33.23251465 170.38300293 -33.35229492 171.09545898 C-34.5112899 176.29280659 -36.61820107 181.17080801 -38.55541992 186.12036133 C-39.31001191 188.0561173 -40.04870109 189.99747619 -40.78710938 191.93945312 C-41.26599609 193.16728516 -41.74488281 194.39511719 -42.23828125 195.66015625 C-42.67180908 196.78043213 -43.10533691 197.90070801 -43.55200195 199.05493164 C-45.08605511 202.17502661 -46.20045831 203.94040401 -49 206 C-54.02583634 207.24894316 -58.07199572 206.88293674 -63.10546875 205.85546875 C-63.75195877 205.72562088 -64.39844879 205.59577301 -65.06452942 205.46199036 C-66.41938666 205.18741952 -67.77312867 204.90729139 -69.12573242 204.62182617 C-71.19003967 204.186965 -73.25748006 203.77086615 -75.32617188 203.35742188 C-86.77962493 201.01566486 -86.77962493 201.01566486 -90 199 C-91.98616845 195.0276631 -90.58194343 189.94483714 -89.34979248 185.82702637 C-88.52436626 183.60328004 -87.63452588 181.41916196 -86.7109375 179.234375 C-86.37603302 178.41604187 -86.04112854 177.59770874 -85.69607544 176.75457764 C-84.59956212 174.0819187 -83.48729124 171.41612625 -82.375 168.75 C-81.59842945 166.86441781 -80.82305632 164.97834206 -80.04882812 163.09179688 C-78.46702528 159.24070684 -76.87977637 155.39193542 -75.28808594 151.54492188 C-72.2894683 144.28972688 -69.34475594 137.01297265 -66.40344238 129.73440552 C-64.87353641 125.95062205 -63.33874421 122.16882079 -61.8046875 118.38671875 C-55.95607468 103.96162531 -50.11840614 89.53209914 -44.27961731 75.10302734 C-42.04522092 69.58166116 -39.80973861 64.06073592 -37.57342529 58.54014587 C-36.0583227 54.79991008 -34.54353009 51.05954878 -33.02874756 47.31918335 C-32.31800207 45.56442234 -31.60711256 43.80971966 -30.89605713 42.05508423 C-30.22563133 40.40067634 -29.5555418 38.74613214 -28.88580322 37.09144592 C-28.23546342 35.48627143 -27.58359221 33.88171646 -26.93011475 32.27781677 C-25.20709478 28.03769856 -23.52888271 23.78516512 -21.90283203 19.50683594 C-21.37901695 18.1472023 -21.37901695 18.1472023 -20.84461975 16.76010132 C-20.17868673 15.02815168 -19.52307489 13.29218361 -18.87986755 11.55166626 C-14.98687154 1.49472225 -10.61199724 -1.20550587 0 0 Z M10 50 C9.80114197 50.51998062 9.60228394 51.03996124 9.3973999 51.57569885 C7.26236505 57.15808177 5.12630328 62.74007109 2.98989868 68.32192993 C1.7538369 71.55247197 0.51885455 74.78342527 -0.71606445 78.0144043 C-4.41061742 87.67425332 -8.11325764 97.3299024 -11.90234375 106.953125 C-12.470397 108.40030163 -13.03843165 109.84748556 -13.60644531 111.29467773 C-14.6404369 113.92779244 -15.68425703 116.55672882 -16.73339844 119.18383789 C-17.41257324 120.91234985 -17.41257324 120.91234985 -18.10546875 122.67578125 C-18.49887451 123.66489502 -18.89228027 124.65400879 -19.29760742 125.6730957 C-20.28886252 127.99444476 -20.28886252 127.99444476 -19 130 C-16.53591239 130.75467852 -16.53591239 130.75467852 -13.5390625 131.2890625 C-12.42789063 131.50820312 -11.31671875 131.72734375 -10.171875 131.953125 C-9.00140625 132.17484375 -7.8309375 132.3965625 -6.625 132.625 C-5.46226563 132.85445313 -4.29953125 133.08390625 -3.1015625 133.3203125 C2.90731048 134.55566053 2.90731048 134.55566053 9 135 C9.66 106.95 10.32 78.9 11 50 C10.67 50 10.34 50 10 50 Z M331.125 120 C325.26896577 128.26734244 324.84702575 137.61157621 324.83203125 147.453125 C324.82870285 148.234599 324.82537445 149.016073 324.82194519 149.82122803 C324.8169152 151.4649599 324.81453564 153.10870185 324.81469727 154.75244141 C324.81251789 157.22966893 324.79433961 159.70644512 324.77539062 162.18359375 C324.62750909 179.799149 324.62750909 179.799149 331.1875 195.8125 C334.23663694 197.81021041 337.43923616 198.21580387 341 198 C345.9817122 195.65013576 348.13342304 193.13308664 350 188 C352.39675128 178.96543757 352.30749532 169.86460046 352.26074219 160.59399414 C352.25003556 158.07088102 352.26068099 155.548482 352.2734375 153.02539062 C352.67579163 134.87089198 352.67579163 134.87089198 345 119 C340.37225147 116.68612574 335.28216328 117.10806033 331.125 120 Z M165 133 C163.73515325 150.32388321 163.8990199 167.64229826 164 185 C166.37374216 185.02039979 168.74730551 185.03520132 171.12109375 185.046875 C171.78572632 185.05315918 172.45035889 185.05944336 173.13513184 185.06591797 C183.06449596 185.10243417 190.25372827 183.95368253 197.8125 177.4375 C200.47383464 174.21588439 200.34525732 170.43223248 200.26171875 166.4609375 C199.42431185 158.58681294 195.30042529 153.55262358 189.41015625 148.55078125 C177.92000113 138.68590039 177.92000113 138.68590039 165 133 Z " fill="#313541" transform="translate(91,0)"/>
<path d="M0 0 C2.62385166 0.49826275 5.1883501 1.11594411 7.77563477 1.77758789 C22.53822605 5.52041264 36.8619573 5.3615406 51.98486328 4.90234375 C53.28358116 4.87333229 53.28358116 4.87333229 54.60853577 4.84373474 C56.23329357 4.80597209 57.8577861 4.75085385 59.48118591 4.67445374 C65.08402153 4.55156866 69.42083771 5.66199303 74 9 C75.90917969 11.54321289 75.90917969 11.54321289 77.171875 14.41015625 C77.65076172 15.47766113 78.12964844 16.54516602 78.62304688 17.64501953 C79.07744141 18.75216309 79.53183594 19.85930664 80 21 C80.64291992 22.56210205 80.64291992 22.56210205 81.29882812 24.15576172 C82.6567026 27.56858744 83.95796799 30.9992247 85.25 34.4375 C86.28048467 37.14762778 87.31724095 39.85533013 88.35546875 42.5625 C88.63361923 43.28855942 88.91176971 44.01461884 89.198349 44.76268005 C93.97461475 57.18520533 98.98348355 69.51733875 103.94433594 81.86694336 C104.51211006 83.28154846 104.51211006 83.28154846 105.09135437 84.72473145 C105.80072734 86.4917041 106.51095951 88.25833219 107.22224426 90.02453613 C107.54408188 90.82588989 107.86591949 91.62724365 108.19750977 92.45288086 C108.47442154 93.14103378 108.75133331 93.82918671 109.03663635 94.53819275 C110.39579908 98.01143639 111.6954278 101.50588843 113 105 C113.00586624 103.87104813 113.01173248 102.74209625 113.01777649 101.57893372 C113.07498486 90.94057829 113.14773673 80.30242766 113.23571491 69.66428089 C113.28044589 64.19506617 113.31969612 58.72592642 113.34643555 53.2565918 C113.37244113 47.9785554 113.41282435 42.70080706 113.46318626 37.42294884 C113.47987351 35.40916209 113.4913762 33.39532549 113.49761391 31.38147926 C113.50723468 28.56105971 113.53526997 25.74138021 113.56762695 22.92114258 C113.56619186 22.08820175 113.56475677 21.25526093 113.5632782 20.39707947 C113.65465699 14.76660453 114.73668953 11.42209285 118.67041016 7.21240234 C122.11329626 5.42060058 125.48273905 5.57166138 129.2734375 5.6015625 C130.07480133 5.59869232 130.87616516 5.59582214 131.70181274 5.59286499 C133.39464017 5.59082665 135.08749128 5.59634044 136.78027344 5.60888672 C139.35926616 5.62490229 141.9366818 5.60905284 144.515625 5.58984375 C146.16406594 5.59182705 147.81250589 5.59567251 149.4609375 5.6015625 C150.2267514 5.59548981 150.99256531 5.58941711 151.78158569 5.5831604 C156.66516418 5.64664848 159.61903544 6.68787867 164 9 C166.18317872 9.08009502 166.18317872 9.08009502 168.22265625 8.453125 C168.99770508 8.2677417 169.77275391 8.0823584 170.57128906 7.89135742 C171.39338867 7.67970947 172.21548828 7.46806152 173.0625 7.25 C188.53513529 3.72580491 205.23073023 2.68098974 221 5 C221.99 5.66 222.98 6.32 224 7 C219.4310431 7.72059638 215.0100004 8.13749325 210.38671875 8.2109375 C175.45199456 8.5453958 175.45199456 8.5453958 145.29296875 24.55078125 C135.72342158 34.70176926 133.61359194 48.18085732 133.6875 61.5625 C133.69241455 62.61735596 133.6973291 63.67221191 133.70239258 64.7590332 C134.02377273 86.37390844 140.12167351 103.83548752 155.1875 119.625 C160.95027906 125.21338959 167.27548614 129.65650349 174 134 C200.72553539 151.27746465 200.72553539 151.27746465 203 161 C203.6747513 167.25221683 203.99938781 172.85316693 201.3125 178.625 C200.1678125 179.800625 200.1678125 179.800625 199 181 C197.88625 182.175625 197.88625 182.175625 196.75 183.375 C192.9306887 185.63186577 190.38747508 185.29745594 186 185 C187.49678501 182.00642998 190.0285712 181.44823416 192.9921875 180.09765625 C196.40191054 178.23358587 197.76531102 176.70406694 199 173 C199.82542171 166.2613113 198.7113643 160.70583708 195 155 C187.52970713 146.00211607 175.78552185 140.16339718 166 134 C164.87738748 150.98250009 164.47418302 167.98994537 164 185 C168.62 185 173.24 185 178 185 C176.515 186.98 176.515 186.98 175 189 C172.24697315 189.32724092 169.9238652 189.42413775 167.1875 189.3125 C166.48818359 189.30283203 165.78886719 189.29316406 165.06835938 189.28320312 C160.95467947 189.19469551 157.04541362 188.70038325 153 188 C151.23075635 187.9141879 149.4588153 187.86962423 147.6875 187.875 C146.82511719 187.87242187 145.96273437 187.86984375 145.07421875 187.8671875 C143.00972905 187.77011159 143.00972905 187.77011159 142 189 C141.90558371 193.00083623 142.14799961 197.00241527 142.3125 201 C142.34794922 202.11246094 142.38339844 203.22492188 142.41992188 204.37109375 C142.67374728 210.80386308 143.1184448 216.82317738 145 223 C148.01380247 224.79668993 149.65019717 225.37571856 153 226 C154.01578125 226.18949219 155.0315625 226.37898437 156.078125 226.57421875 C163.80603217 227.81809422 171.49955278 228.34105158 179.30859375 228.65625 C183.1625278 229.01513486 186.32886965 229.82523829 190 231 C190 231.33 190 231.66 190 232 C185.91068318 232.05001046 181.82148859 232.08600357 177.73193359 232.10986328 C176.34518324 232.11982603 174.95845335 232.13340118 173.57177734 232.15087891 C166.37422797 232.23922428 159.56897034 232.12319065 152.53417969 230.46777344 C146.0577494 229.27231675 139.29171366 229.59655742 132.72460938 229.52148438 C120.93081625 229.25059053 120.93081625 229.25059053 116 226 C111.82127414 220.63155724 109.33888252 214.42081881 106.91796875 208.125 C106.54126541 207.16577637 106.16456207 206.20655273 105.77644348 205.21826172 C104.57255904 202.14840507 103.37958162 199.07445657 102.1875 196 C101.0417788 193.06475033 99.89368018 190.13043973 98.74514771 187.19628906 C97.93669673 185.13088389 97.12915579 183.06512229 96.32247925 180.99902344 C89.65606975 163.95682518 82.81141907 146.98461508 76 130 C75.99413376 131.10167511 75.98826752 132.20335022 75.98222351 133.33840942 C75.92498305 143.7262817 75.85221433 154.11394491 75.76428509 164.50160408 C75.7195788 169.84187432 75.6803231 175.18206822 75.65356445 180.52246094 C75.62753427 185.6773118 75.58713353 190.83186895 75.53681374 195.98653793 C75.52014316 197.95204894 75.50863007 199.91761074 75.50238609 201.88318253 C75.49274719 204.63874268 75.46469022 207.39355107 75.43237305 210.14892578 C75.43380814 210.95956985 75.43524323 211.77021393 75.4367218 212.60542297 C75.3428635 218.27299462 74.24894134 222.49454811 70.34326172 226.84570312 C66.82723663 228.57770632 63.34628926 228.4677735 59.5078125 228.46875 C58.68425262 228.47636353 57.86069275 228.48397705 57.01217651 228.49182129 C55.27230861 228.50261117 53.532376 228.5054799 51.79248047 228.50097656 C49.14049245 228.50000567 46.49141306 228.54160511 43.83984375 228.5859375 C42.14583934 228.59114606 40.45182492 228.59383267 38.7578125 228.59375 C37.97012482 228.61014526 37.18243713 228.62654053 36.37088013 228.64343262 C30.48840681 228.57019596 28.25163014 226.99995208 24 223 C21.97685705 222.06235979 21.97685705 222.06235979 20.01953125 221.7421875 C19.33052734 221.59136719 18.64152344 221.44054687 17.93164062 221.28515625 C16.88266602 221.08212891 16.88266602 221.08212891 15.8125 220.875 C7.24455249 219.1505355 7.24455249 219.1505355 5 216 C3.42273168 212.84546335 3.85809494 209.46259198 3.8671875 206 C3.86623077 205.20851562 3.86527405 204.41703125 3.86428833 203.6015625 C3.86360741 201.92708253 3.86545556 200.25259991 3.86962891 198.578125 C3.87497842 196.01035654 3.86968097 193.442763 3.86328125 190.875 C3.86394205 189.24999961 3.86522324 187.62499933 3.8671875 186 C3.86516327 185.22914063 3.86313904 184.45828125 3.86105347 183.6640625 C3.88503934 178.22992132 3.88503934 178.22992132 5 176 C0.7292236 175.20802599 -3.54163164 174.41647795 -7.8125 173.625 C-9.00810547 173.40328125 -10.20371094 173.1815625 -11.43554688 172.953125 C-18.62124345 171.62171528 -25.80881743 170.30146322 -33 169 C-33.11625732 169.69150146 -33.23251465 170.38300293 -33.35229492 171.09545898 C-34.5112899 176.29280659 -36.61820107 181.17080801 -38.55541992 186.12036133 C-39.31001191 188.0561173 -40.04870109 189.99747619 -40.78710938 191.93945312 C-41.26599609 193.16728516 -41.74488281 194.39511719 -42.23828125 195.66015625 C-42.67180908 196.78043213 -43.10533691 197.90070801 -43.55200195 199.05493164 C-45.08605511 202.17502661 -46.20045831 203.94040401 -49 206 C-54.02583634 207.24894316 -58.07199572 206.88293674 -63.10546875 205.85546875 C-63.75195877 205.72562088 -64.39844879 205.59577301 -65.06452942 205.46199036 C-66.41938666 205.18741952 -67.77312867 204.90729139 -69.12573242 204.62182617 C-71.19003967 204.186965 -73.25748006 203.77086615 -75.32617188 203.35742188 C-86.77962493 201.01566486 -86.77962493 201.01566486 -90 199 C-91.98616845 195.0276631 -90.58194343 189.94483714 -89.34979248 185.82702637 C-88.52436626 183.60328004 -87.63452588 181.41916196 -86.7109375 179.234375 C-86.37603302 178.41604187 -86.04112854 177.59770874 -85.69607544 176.75457764 C-84.59956212 174.0819187 -83.48729124 171.41612625 -82.375 168.75 C-81.59842945 166.86441781 -80.82305632 164.97834206 -80.04882812 163.09179688 C-78.46702528 159.24070684 -76.87977637 155.39193542 -75.28808594 151.54492188 C-72.2894683 144.28972688 -69.34475594 137.01297265 -66.40344238 129.73440552 C-64.87353641 125.95062205 -63.33874421 122.16882079 -61.8046875 118.38671875 C-55.95607468 103.96162531 -50.11840614 89.53209914 -44.27961731 75.10302734 C-42.04522092 69.58166116 -39.80973861 64.06073592 -37.57342529 58.54014587 C-36.0583227 54.79991008 -34.54353009 51.05954878 -33.02874756 47.31918335 C-32.31800207 45.56442234 -31.60711256 43.80971966 -30.89605713 42.05508423 C-30.22563133 40.40067634 -29.5555418 38.74613214 -28.88580322 37.09144592 C-28.23546342 35.48627143 -27.58359221 33.88171646 -26.93011475 32.27781677 C-25.20709478 28.03769856 -23.52888271 23.78516512 -21.90283203 19.50683594 C-21.37901695 18.1472023 -21.37901695 18.1472023 -20.84461975 16.76010132 C-20.17868673 15.02815168 -19.52307489 13.29218361 -18.87986755 11.55166626 C-14.98687154 1.49472225 -10.61199724 -1.20550587 0 0 Z M10 50 C9.80114197 50.51998062 9.60228394 51.03996124 9.3973999 51.57569885 C7.26236505 57.15808177 5.12630328 62.74007109 2.98989868 68.32192993 C1.7538369 71.55247197 0.51885455 74.78342527 -0.71606445 78.0144043 C-4.41061742 87.67425332 -8.11325764 97.3299024 -11.90234375 106.953125 C-12.470397 108.40030163 -13.03843165 109.84748556 -13.60644531 111.29467773 C-14.6404369 113.92779244 -15.68425703 116.55672882 -16.73339844 119.18383789 C-17.41257324 120.91234985 -17.41257324 120.91234985 -18.10546875 122.67578125 C-18.49887451 123.66489502 -18.89228027 124.65400879 -19.29760742 125.6730957 C-20.28886252 127.99444476 -20.28886252 127.99444476 -19 130 C-16.53591239 130.75467852 -16.53591239 130.75467852 -13.5390625 131.2890625 C-12.42789063 131.50820312 -11.31671875 131.72734375 -10.171875 131.953125 C-9.00140625 132.17484375 -7.8309375 132.3965625 -6.625 132.625 C-5.46226563 132.85445313 -4.29953125 133.08390625 -3.1015625 133.3203125 C2.90731048 134.55566053 2.90731048 134.55566053 9 135 C9.66 106.95 10.32 78.9 11 50 C10.67 50 10.34 50 10 50 Z " fill="#323642" transform="translate(91,0)"/>
<path d="M0 0 C0.74561188 -0.00570007 1.49122375 -0.01140015 2.25942993 -0.01727295 C3.82756151 -0.02666234 5.39571229 -0.0332326 6.96386719 -0.03710938 C9.33824635 -0.04682054 11.71176053 -0.07790289 14.0859375 -0.109375 C28.9070723 -0.21610556 28.9070723 -0.21610556 35.9765625 3.203125 C38.64075675 6.0684417 39.3927119 8.18986135 39.70703125 12.0546875 C39.78759766 12.98925781 39.86816406 13.92382812 39.95117188 14.88671875 C40.02142578 15.85738281 40.09167969 16.82804687 40.1640625 17.828125 C40.24591797 18.77558594 40.32777344 19.72304688 40.41210938 20.69921875 C40.64277178 23.5330711 40.82420398 26.36402998 40.9765625 29.203125 C41.0276416 30.13866211 41.0787207 31.07419922 41.13134766 32.03808594 C41.17267822 33.36888184 41.17267822 33.36888184 41.21484375 34.7265625 C41.24231689 35.51724121 41.26979004 36.30791992 41.2980957 37.12255859 C40.9765625 39.203125 40.9765625 39.203125 39.91137695 40.96899414 C36.9079924 42.88471766 34.30607229 42.50233239 30.78125 42.42578125 C30.07437042 42.41679306 29.36749084 42.40780487 28.63919067 42.39854431 C26.37614815 42.36853424 24.11416979 42.31884299 21.8515625 42.265625 C4.78843488 41.18653323 4.78843488 41.18653323 -10.0234375 48.203125 C-12.67977154 54.90170649 -12.79732918 61.86063818 -10.046875 68.59375 C-8.82765549 70.9063341 -7.50208645 73.04794352 -6.0234375 75.203125 C-5.62511719 75.78578125 -5.22679687 76.3684375 -4.81640625 76.96875 C1.45254816 85.07483003 11.01177405 90.90812106 19.4140625 96.578125 C35.08805026 107.36818904 48.9737725 119.56031377 54.9765625 138.203125 C55.29367187 139.12609375 55.61078125 140.0490625 55.9375 141 C60.61376763 157.21678132 60.02214491 177.01574401 52.50390625 192.171875 C45.53229738 204.17029405 35.39530937 210.80942074 22.9765625 216.203125 C22.20699219 216.54214844 21.43742187 216.88117188 20.64453125 217.23046875 C9.21240831 221.62407623 -3.64981851 221.40672032 -15.70916748 221.49966431 C-17.7249668 221.51525023 -19.7406697 221.54203323 -21.75634766 221.5690918 C-30.93497043 221.56273301 -40.19153658 221.14016281 -48.2109375 216.265625 C-51.80424208 212.1766922 -51.32508276 206.86688196 -51.5859375 201.640625 C-51.6262207 200.83939209 -51.66650391 200.03815918 -51.70800781 199.21264648 C-51.82003127 196.87639266 -51.92275932 194.53989136 -52.0234375 192.203125 C-52.07886719 191.04039062 -52.13429688 189.87765625 -52.19140625 188.6796875 C-52.21847656 187.71804687 -52.24554688 186.75640625 -52.2734375 185.765625 C-52.29921875 184.94191406 -52.325 184.11820313 -52.3515625 183.26953125 C-51.93395374 180.63959038 -51.14151117 179.77427824 -49.0234375 178.203125 C-44.43853475 177.70476601 -40.24922374 178.46010758 -35.7109375 179.203125 C-22.92444313 181.24197376 -7.30311144 181.45789326 3.9765625 174.203125 C8.64994339 169.41290959 9.27062165 165.3506895 9.1953125 158.90234375 C8.65444639 152.22844234 6.46655021 147.15940959 1.9765625 142.203125 C-0.28949871 140.2838517 -2.66855624 138.55108072 -5.0859375 136.828125 C-6.08294678 136.10641113 -6.08294678 136.10641113 -7.10009766 135.37011719 C-11.80323862 131.99472215 -16.63035127 128.86690992 -21.54296875 125.8046875 C-25.58658507 123.19384862 -29.32204916 120.27476324 -33.0234375 117.203125 C-33.8484375 116.52507812 -34.6734375 115.84703125 -35.5234375 115.1484375 C-49.33400324 103.31682478 -58.49458516 87.51468527 -60.0234375 69.203125 C-60.29044253 64.32756965 -60.40475582 59.46037431 -60.4609375 54.578125 C-60.48333496 53.36318359 -60.50573242 52.14824219 -60.52880859 50.89648438 C-60.49456513 37.58118551 -57.24727258 25.84291987 -47.98828125 16.05078125 C-35.20232483 3.94133046 -17.21580578 0.10433972 0 0 Z " fill="#FC0000" transform="translate(320.0234375,8.796875)"/>
<path d="M0 0 C5.26972511 0.8288049 10.47232647 1.88420124 15.6875 3 C17.08247549 3.29005886 18.47765713 3.57912811 19.87304688 3.8671875 C23.25114605 4.5667564 26.62627572 5.27959092 30 6 C29.35148701 6.97399026 28.70297401 7.94798052 28.03480911 8.95148563 C25.59224076 13.25407483 25.41929241 16.90766054 25.4430542 21.77622986 C25.4314694 22.63567328 25.41988459 23.49511669 25.40794873 24.38060385 C25.37406161 27.24729822 25.3682061 30.11334647 25.36230469 32.98022461 C25.34370035 35.04036019 25.32336214 37.10048074 25.30142212 39.1605835 C25.24685824 44.74466977 25.21653439 50.32865524 25.19056606 55.91293788 C25.15928893 61.75201771 25.10571319 67.59089192 25.05450439 73.42982483 C24.96095431 84.48283772 24.88745393 95.53588935 24.82115865 106.58909565 C24.74469772 119.17439341 24.64588232 131.7594846 24.54519033 144.34460819 C24.33858867 170.22958565 24.16005594 196.11469584 24 222 C22.4266064 221.86617068 20.85379431 221.72549594 19.28125 221.58203125 C18.40533203 221.5044458 17.52941406 221.42686035 16.62695312 221.34692383 C12.65493759 220.82236676 9.61785813 219.74432446 6 218 C3.26716946 214.38466408 3.72863282 210.13350117 3.76953125 205.8046875 C3.76998947 205.01603302 3.77044769 204.22737854 3.7709198 203.41482544 C3.77393445 201.75228363 3.78179716 200.08974445 3.79418945 198.42724609 C3.81248438 195.87717742 3.81469875 193.32747132 3.81445312 190.77734375 C3.81936723 189.16145518 3.82519507 187.54556908 3.83203125 185.9296875 C3.83314407 185.16510223 3.8342569 184.40051697 3.83540344 183.61276245 C3.88390992 178.23218015 3.88390992 178.23218015 5 176 C0.7292236 175.20802599 -3.54163164 174.41647795 -7.8125 173.625 C-9.00810547 173.40328125 -10.20371094 173.1815625 -11.43554688 172.953125 C-18.62124345 171.62171528 -25.80881743 170.30146322 -33 169 C-33.11625732 169.69150146 -33.23251465 170.38300293 -33.35229492 171.09545898 C-34.5112899 176.29280659 -36.61820107 181.17080801 -38.55541992 186.12036133 C-39.31001191 188.0561173 -40.04870109 189.99747619 -40.78710938 191.93945312 C-41.26599609 193.16728516 -41.74488281 194.39511719 -42.23828125 195.66015625 C-42.67180908 196.78043213 -43.10533691 197.90070801 -43.55200195 199.05493164 C-45.08605511 202.17502661 -46.20045831 203.94040401 -49 206 C-54.02583634 207.24894316 -58.07199572 206.88293674 -63.10546875 205.85546875 C-63.75195877 205.72562088 -64.39844879 205.59577301 -65.06452942 205.46199036 C-66.41938666 205.18741952 -67.77312867 204.90729139 -69.12573242 204.62182617 C-71.19003967 204.186965 -73.25748006 203.77086615 -75.32617188 203.35742188 C-86.77962493 201.01566486 -86.77962493 201.01566486 -90 199 C-91.98616845 195.0276631 -90.58194343 189.94483714 -89.34979248 185.82702637 C-88.52436626 183.60328004 -87.63452588 181.41916196 -86.7109375 179.234375 C-86.37603302 178.41604187 -86.04112854 177.59770874 -85.69607544 176.75457764 C-84.59956212 174.0819187 -83.48729124 171.41612625 -82.375 168.75 C-81.59842945 166.86441781 -80.82305632 164.97834206 -80.04882812 163.09179688 C-78.46702528 159.24070684 -76.87977637 155.39193542 -75.28808594 151.54492188 C-72.2894683 144.28972688 -69.34475594 137.01297265 -66.40344238 129.73440552 C-64.87353641 125.95062205 -63.33874421 122.16882079 -61.8046875 118.38671875 C-55.95607468 103.96162531 -50.11840614 89.53209914 -44.27961731 75.10302734 C-42.04522092 69.58166116 -39.80973861 64.06073592 -37.57342529 58.54014587 C-36.0583227 54.79991008 -34.54353009 51.05954878 -33.02874756 47.31918335 C-32.31800207 45.56442234 -31.60711256 43.80971966 -30.89605713 42.05508423 C-30.22563133 40.40067634 -29.5555418 38.74613214 -28.88580322 37.09144592 C-28.23546342 35.48627143 -27.58359221 33.88171646 -26.93011475 32.27781677 C-25.20709478 28.03769856 -23.52888271 23.78516512 -21.90283203 19.50683594 C-21.37901695 18.1472023 -21.37901695 18.1472023 -20.84461975 16.76010132 C-20.17868673 15.02815168 -19.52307489 13.29218361 -18.87986755 11.55166626 C-14.96399601 1.4356269 -10.61894996 -1.18359532 0 0 Z M10 50 C9.80114197 50.51998062 9.60228394 51.03996124 9.3973999 51.57569885 C7.26236505 57.15808177 5.12630328 62.74007109 2.98989868 68.32192993 C1.7538369 71.55247197 0.51885455 74.78342527 -0.71606445 78.0144043 C-4.41061742 87.67425332 -8.11325764 97.3299024 -11.90234375 106.953125 C-12.470397 108.40030163 -13.03843165 109.84748556 -13.60644531 111.29467773 C-14.6404369 113.92779244 -15.68425703 116.55672882 -16.73339844 119.18383789 C-17.41257324 120.91234985 -17.41257324 120.91234985 -18.10546875 122.67578125 C-18.49887451 123.66489502 -18.89228027 124.65400879 -19.29760742 125.6730957 C-20.28886252 127.99444476 -20.28886252 127.99444476 -19 130 C-16.53591239 130.75467852 -16.53591239 130.75467852 -13.5390625 131.2890625 C-12.42789063 131.50820312 -11.31671875 131.72734375 -10.171875 131.953125 C-9.00140625 132.17484375 -7.8309375 132.3965625 -6.625 132.625 C-5.46226563 132.85445313 -4.29953125 133.08390625 -3.1015625 133.3203125 C2.90731048 134.55566053 2.90731048 134.55566053 9 135 C9.66 106.95 10.32 78.9 11 50 C10.67 50 10.34 50 10 50 Z " fill="#313541" transform="translate(91,0)"/>
<path d="M0 0 C0.81154541 0.03440186 1.62309082 0.06880371 2.45922852 0.10424805 C6.2639082 0.32724038 8.33161394 0.53357596 11.5625 2.6875 C6.9935431 3.40809638 2.5725004 3.82499325 -2.05078125 3.8984375 C-36.98550544 4.2328958 -36.98550544 4.2328958 -67.14453125 20.23828125 C-76.71407842 30.38926926 -78.82390806 43.86835732 -78.75 57.25 C-78.74508545 58.30485596 -78.7401709 59.35971191 -78.73510742 60.4465332 C-78.41372727 82.06140844 -72.31582649 99.52298752 -57.25 115.3125 C-51.48722094 120.90088959 -45.16201386 125.34400349 -38.4375 129.6875 C-11.71196461 146.96496465 -11.71196461 146.96496465 -9.4375 156.6875 C-8.7627487 162.93971683 -8.43811219 168.54066693 -11.125 174.3125 C-12.2696875 175.488125 -12.2696875 175.488125 -13.4375 176.6875 C-14.55125 177.863125 -14.55125 177.863125 -15.6875 179.0625 C-19.5068113 181.31936577 -22.05002492 180.98495594 -26.4375 180.6875 C-24.94071499 177.69392998 -22.4089288 177.13573416 -19.4453125 175.78515625 C-16.03558946 173.92108587 -14.67218898 172.39156694 -13.4375 168.6875 C-12.61207829 161.9488113 -13.7261357 156.39333708 -17.4375 150.6875 C-24.90779287 141.68961607 -36.65197815 135.85089718 -46.4375 129.6875 C-47.56011252 146.67000009 -47.96331698 163.67744537 -48.4375 180.6875 C-43.8175 180.6875 -39.1975 180.6875 -34.4375 180.6875 C-35.4275 182.0075 -36.4175 183.3275 -37.4375 184.6875 C-40.19052685 185.01474092 -42.5136348 185.11163775 -45.25 185 C-45.94931641 184.99033203 -46.64863281 184.98066406 -47.36914062 184.97070312 C-51.48282053 184.88219551 -55.39208638 184.38788325 -59.4375 183.6875 C-61.20674365 183.6016879 -62.9786847 183.55712423 -64.75 183.5625 C-65.61238281 183.55992187 -66.47476563 183.55734375 -67.36328125 183.5546875 C-69.42777095 183.45761159 -69.42777095 183.45761159 -70.4375 184.6875 C-70.53191629 188.68833623 -70.28950039 192.68991527 -70.125 196.6875 C-70.08955078 197.79996094 -70.05410156 198.91242188 -70.01757812 200.05859375 C-69.76375272 206.49136308 -69.3190552 212.51067738 -67.4375 218.6875 C-64.42369753 220.48418993 -62.78730283 221.06321856 -59.4375 221.6875 C-58.42171875 221.87699219 -57.4059375 222.06648437 -56.359375 222.26171875 C-48.63146783 223.50559422 -40.93794722 224.02855158 -33.12890625 224.34375 C-29.2749722 224.70263486 -26.10863035 225.51273829 -22.4375 226.6875 C-22.4375 227.0175 -22.4375 227.3475 -22.4375 227.6875 C-26.52681682 227.73751046 -30.61601141 227.77350357 -34.70556641 227.79736328 C-36.09231676 227.80732603 -37.47904665 227.82090118 -38.86572266 227.83837891 C-46.06327203 227.92672428 -52.86852966 227.81069065 -59.90332031 226.15527344 C-66.3797506 224.95981675 -73.14578634 225.28405742 -79.71289062 225.20898438 C-91.50668375 224.93809053 -91.50668375 224.93809053 -96.4375 221.6875 C-100.61622586 216.31905724 -103.09861748 210.10831881 -105.51953125 203.8125 C-105.89623459 202.85327637 -106.27293793 201.89405273 -106.66105652 200.90576172 C-107.86494096 197.83590507 -109.05791838 194.76195657 -110.25 191.6875 C-111.3957212 188.75225033 -112.54381982 185.81793973 -113.69235229 182.88378906 C-114.50080327 180.81838389 -115.30834421 178.75262229 -116.11502075 176.68652344 C-122.78143025 159.64432518 -129.62608093 142.67211508 -136.4375 125.6875 C-136.44336624 126.78917511 -136.44923248 127.89085022 -136.45527649 129.02590942 C-136.51251695 139.4137817 -136.58528567 149.80144491 -136.67321491 160.18910408 C-136.7179212 165.52937432 -136.7571769 170.86956822 -136.78393555 176.20996094 C-136.80996573 181.3648118 -136.85036647 186.51936895 -136.90068626 191.67403793 C-136.91735684 193.63954894 -136.92886993 195.60511074 -136.93511391 197.57068253 C-136.94475281 200.32624268 -136.97280978 203.08105107 -137.00512695 205.83642578 C-137.00369186 206.64706985 -137.00225677 207.45771393 -137.0007782 208.29292297 C-137.0946365 213.96049462 -138.18855866 218.18204811 -142.09423828 222.53320312 C-145.61026337 224.26520632 -149.09121074 224.1552735 -152.9296875 224.15625 C-153.75324738 224.16386353 -154.57680725 224.17147705 -155.42532349 224.17932129 C-157.16519139 224.19011117 -158.905124 224.1929799 -160.64501953 224.18847656 C-163.29700755 224.18750567 -165.94608694 224.22910511 -168.59765625 224.2734375 C-170.29166066 224.27864606 -171.98567508 224.28133267 -173.6796875 224.28125 C-174.46737518 224.29764526 -175.25506287 224.31404053 -176.06661987 224.33093262 C-176.81404449 224.3216272 -177.56146912 224.31232178 -178.33154297 224.30273438 C-178.9812204 224.30478882 -179.63089783 224.30684326 -180.30026245 224.30895996 C-183.7468643 223.30676671 -186.25925795 221.48223249 -188.4375 218.6875 C-189.02361465 215.70793958 -189.21316251 213.54793718 -189.13452148 210.578125 C-189.13819418 209.35869154 -189.13819418 209.35869154 -189.14194107 208.11462307 C-189.14278237 205.38800811 -189.10056804 202.66376716 -189.05859375 199.9375 C-189.0503931 197.97690217 -189.04483044 196.0162918 -189.04170227 194.05567932 C-189.02540137 188.71500009 -188.97150517 183.37529001 -188.91020203 178.0349617 C-188.85125583 172.42959893 -188.82345907 166.82407804 -188.79199219 161.21850586 C-188.73440764 151.69737775 -188.65447869 142.17662844 -188.56396484 132.65576172 C-188.44530767 119.97477021 -188.39135439 107.29416472 -188.35536194 94.61270142 C-188.3302525 85.8113853 -188.28905076 77.01017419 -188.24235821 68.20894814 C-188.21019092 62.1287954 -188.18301491 56.04872844 -188.16842651 49.96850586 C-188.15360562 44.23462411 -188.11909674 38.50118407 -188.06963158 32.76749992 C-188.05462174 30.65611446 -188.0464253 28.54466806 -188.04549599 26.43322945 C-188.04315795 23.54558503 -188.01636256 20.65916244 -187.98339844 17.77172852 C-187.98843101 16.93252365 -187.99346357 16.09331879 -187.99864864 15.22868347 C-187.90408446 9.93331147 -186.96559422 6.87726813 -183.4375 2.6875 C-179.83222144 0.28398096 -177.15809962 0.36476144 -172.98828125 0.3515625 C-171.89111031 0.3415773 -171.89111031 0.3415773 -170.77177429 0.33139038 C-169.22263092 0.32126829 -167.67344398 0.31657323 -166.12426758 0.31689453 C-163.77545257 0.31254711 -161.42855743 0.27629931 -159.08007812 0.23828125 C-144.64271685 0.11451426 -144.64271685 0.11451426 -139.98803711 3.06567383 C-136.30755694 6.91537148 -134.43337185 11.82450869 -132.4375 16.6875 C-132.00888672 17.72890137 -131.58027344 18.77030273 -131.13867188 19.84326172 C-129.7807974 23.25608744 -128.47953201 26.6867247 -127.1875 30.125 C-126.15701533 32.83512778 -125.12025905 35.54283013 -124.08203125 38.25 C-123.80388077 38.97605942 -123.52573029 39.70211884 -123.239151 40.45018005 C-118.46288525 52.87270533 -113.45401645 65.20483875 -108.49316406 77.55444336 C-108.11464798 78.49751343 -107.7361319 79.4405835 -107.34614563 80.41223145 C-106.63677266 82.1792041 -105.92654049 83.94583219 -105.21525574 85.71203613 C-104.89341812 86.51338989 -104.57158051 87.31474365 -104.23999023 88.14038086 C-103.96307846 88.82853378 -103.68616669 89.51668671 -103.40086365 90.22569275 C-102.04170092 93.69893639 -100.7420722 97.19338843 -99.4375 100.6875 C-99.42870064 98.99407219 -99.42870064 98.99407219 -99.41972351 97.26643372 C-99.36251514 86.62807829 -99.28976327 75.98992766 -99.20178509 65.35178089 C-99.15705411 59.88256617 -99.11780388 54.41342642 -99.09106445 48.9440918 C-99.06505887 43.6660554 -99.02467565 38.38830706 -98.97431374 33.11044884 C-98.95762649 31.09666209 -98.9461238 29.08282549 -98.93988609 27.06897926 C-98.93026532 24.24855971 -98.90223003 21.42888021 -98.86987305 18.60864258 C-98.87202568 17.35923134 -98.87202568 17.35923134 -98.8742218 16.08457947 C-98.78284301 10.45410453 -97.70081047 7.10959285 -93.76708984 2.89990234 C-90.32420374 1.10810058 -86.95476095 1.25916138 -83.1640625 1.2890625 C-82.36269867 1.28619232 -81.56133484 1.28332214 -80.73568726 1.28036499 C-79.04285983 1.27832665 -77.35000872 1.28384044 -75.65722656 1.29638672 C-73.07823384 1.31240229 -70.5008182 1.29655284 -67.921875 1.27734375 C-66.27343406 1.27932705 -64.62499411 1.28317251 -62.9765625 1.2890625 C-62.2107486 1.28298981 -61.44493469 1.27691711 -60.65591431 1.2706604 C-55.77072806 1.33416938 -52.82134115 2.37943306 -48.4375 4.6875 C-46.20568737 4.76715696 -46.20568737 4.76715696 -44.109375 4.140625 C-43.31909912 3.9552417 -42.52882324 3.7698584 -41.71459961 3.57885742 C-40.88065674 3.36720947 -40.04671387 3.15556152 -39.1875 2.9375 C-26.04701783 -0.02178617 -13.43239161 -0.59668286 0 0 Z M-184.4375 8.6875 C-185.05194801 11.40185225 -185.05194801 11.40185225 -184.98339844 14.45410156 C-185.00308685 15.64708862 -185.02277527 16.84007568 -185.0430603 18.06921387 C-185.04473194 19.40551714 -185.04598645 20.74182098 -185.046875 22.078125 C-185.06226948 23.51600904 -185.07930111 24.9538763 -185.09780884 26.39172363 C-185.14352201 30.39266142 -185.16297494 34.39335609 -185.17693329 38.39451599 C-185.19110541 41.80517735 -185.21769771 45.21569934 -185.24396324 48.62628555 C-185.31054679 57.36929778 -185.35191837 66.11226109 -185.38183594 74.85546875 C-185.41632547 84.88950255 -185.4764408 94.92320918 -185.54785156 104.95703125 C-185.64070425 118.06503093 -185.71165382 131.17298668 -185.75931549 144.28123093 C-185.76468867 145.74441284 -185.77008773 147.20759465 -185.7755127 148.67077637 C-185.77819106 149.3939745 -185.78086942 150.11717263 -185.78362894 150.86228585 C-185.80379625 155.98644031 -185.83602403 161.11043847 -185.8729248 166.23449707 C-185.91810138 172.54978977 -185.94517444 178.86485965 -185.94981658 185.18031693 C-185.95270758 188.45243274 -185.9665618 191.72386865 -185.99650955 194.99586487 C-186.02786787 198.58194878 -186.02835524 202.1667466 -186.02099609 205.75292969 C-186.0374052 206.80992191 -186.05381432 207.86691414 -186.07072067 208.95593643 C-186.11269331 214.66679765 -186.11269331 214.66679765 -183.12661743 219.33757019 C-179.62980535 221.09296057 -176.51954951 221.28097263 -172.6875 221.25390625 C-171.58390137 221.26320412 -171.58390137 221.26320412 -170.45800781 221.27268982 C-168.90821653 221.27976851 -167.3583489 221.27664799 -165.80859375 221.26391602 C-163.44388407 221.25003747 -161.0831265 221.28415431 -158.71875 221.32226562 C-157.20833237 221.32321685 -155.69790981 221.32135784 -154.1875 221.31640625 C-153.4852832 221.32966446 -152.78306641 221.34292267 -152.05957031 221.35658264 C-148.48145208 221.28906432 -146.50102378 220.7294706 -143.50170898 218.74780273 C-140.62005416 214.47559183 -140.67950739 211.15237144 -140.66015625 206.09375 C-140.63687759 205.07180542 -140.61359894 204.04986084 -140.58961487 202.99694824 C-140.5272554 199.9405825 -140.48963046 196.88483926 -140.46073151 193.82800293 C-140.42677534 190.69935208 -140.37400618 187.57106747 -140.32286644 184.44265747 C-140.14227132 173.32896058 -140.01896526 162.21489178 -139.90527344 151.1003418 C-139.85425918 146.1918647 -139.79899847 141.28343538 -139.74414062 136.375 C-139.63787135 126.81254118 -139.53615792 117.25004017 -139.4375 107.6875 C-139.18852966 108.32245392 -138.93955933 108.95740784 -138.68304443 109.61160278 C-122.81415076 150.17415622 -122.81415076 150.17415622 -106.66503906 190.62548828 C-105.39064576 193.80437468 -104.14283027 196.99285539 -102.8984375 200.18359375 C-102.09910247 202.20578615 -101.29963126 204.22792472 -100.5 206.25 C-100.15799561 207.14412598 -99.81599121 208.03825195 -99.46362305 208.95947266 C-97.54052709 213.77597757 -95.88269938 217.72002906 -91.4375 220.6875 C-87.97124959 221.26080031 -84.62560331 221.1608051 -81.125 221 C-80.19365234 220.97744141 -79.26230469 220.95488281 -78.30273438 220.93164062 C-76.0126604 220.87292078 -73.72592125 220.79086858 -71.4375 220.6875 C-71.49808594 219.95225098 -71.55867188 219.21700195 -71.62109375 218.45947266 C-71.89739215 215.07747393 -72.16748335 211.69500583 -72.4375 208.3125 C-72.53289062 207.15621094 -72.62828125 205.99992188 -72.7265625 204.80859375 C-74.22382615 185.87890326 -74.22382615 185.87890326 -71.375 181.5625 C-67.76114792 179.25578591 -65.65166041 179.21042524 -61.4375 179.6875 C-60.7775 180.0175 -60.1175 180.3475 -59.4375 180.6875 C-58.06407169 180.7564472 -56.68747898 180.77217708 -55.3125 180.75 C-53.394375 180.7190625 -53.394375 180.7190625 -51.4375 180.6875 C-51.15736282 172.8962099 -50.9654635 165.10622783 -50.83325195 157.31103516 C-50.77811314 154.66275512 -50.70317769 152.01480724 -50.60766602 149.36767578 C-49.21734379 134.45584953 -49.21734379 134.45584953 -53.76367188 120.87792969 C-56.53033811 118.40351693 -59.24067908 116.55366884 -62.4375 114.6875 C-77.3468066 99.69746102 -81.90378772 78.61567829 -81.9375 58.1875 C-81.72797986 43.18781174 -79.83985713 29.35643209 -69.1875 17.875 C-65.08117804 14.06198675 -60.29114076 11.42827966 -55.4375 8.6875 C-54.4475 8.0275 -53.4575 7.3675 -52.4375 6.6875 C-56.12395829 4.22986114 -58.97699866 4.36444501 -63.24609375 4.3515625 C-64.3907888 4.3415773 -64.3907888 4.3415773 -65.55860901 4.33139038 C-67.17161653 4.32127193 -68.78466585 4.31657311 -70.39770508 4.31689453 C-72.86284466 4.31252156 -75.32619287 4.27619781 -77.79101562 4.23828125 C-79.35936889 4.23241278 -80.92773064 4.22844359 -82.49609375 4.2265625 C-83.23161972 4.21219147 -83.96714569 4.19782043 -84.72496033 4.18301392 C-88.2200016 4.21414844 -90.07981881 4.40771287 -92.87133789 6.59130859 C-95.13074055 9.61535087 -95.56526242 11.27451551 -95.59571838 14.99014282 C-95.6055072 15.89320663 -95.61529602 16.79627045 -95.62538147 17.72669983 C-95.63113693 18.7200383 -95.6368924 19.71337677 -95.64282227 20.73681641 C-95.65272186 21.78074051 -95.66262146 22.82466461 -95.67282104 23.90022278 C-95.70449921 27.363146 -95.72921844 30.82608296 -95.75390625 34.2890625 C-95.77447032 36.68517419 -95.79546664 39.08128221 -95.81687927 41.47738647 C-95.87215641 47.7935489 -95.92154078 54.10974438 -95.96972656 60.42596436 C-96.01990044 66.86733959 -96.07560795 73.30866667 -96.13085938 79.75 C-96.23850994 92.39579194 -96.34012734 105.04162496 -96.4375 117.6875 C-96.77155853 116.822388 -97.10561707 115.957276 -97.44979858 115.06594849 C-98.71777031 111.78333335 -99.98640786 108.50097702 -101.25546265 105.21878052 C-101.7992989 103.81185678 -102.34288747 102.40483727 -102.88619995 100.99771118 C-107.50202098 89.04400042 -112.21512897 77.13169345 -117.00390625 65.24609375 C-119.30710727 59.52174622 -121.59089605 53.78985902 -123.86669922 48.05456543 C-125.50141888 43.93562658 -127.13951178 39.81803259 -128.777771 35.70050049 C-129.58821632 33.66117317 -130.39719284 31.62126147 -131.20465088 29.58074951 C-132.34207647 26.70717579 -133.48492394 23.83581233 -134.62890625 20.96484375 C-134.96905258 20.10157974 -135.30919891 19.23831573 -135.65965271 18.34889221 C-138.27397371 11.11448955 -138.27397371 11.11448955 -143.13085938 5.39599609 C-146.51117092 4.35771666 -149.83984765 4.36221046 -153.34375 4.3515625 C-154.10546509 4.3449057 -154.86718018 4.3382489 -155.65197754 4.33139038 C-157.2590087 4.32128624 -158.86608164 4.31657267 -160.47314453 4.31689453 C-162.92941259 4.31251442 -165.38389258 4.27615592 -167.83984375 4.23828125 C-169.40363971 4.23241391 -170.96744417 4.22844396 -172.53125 4.2265625 C-173.62983337 4.20500595 -173.62983337 4.20500595 -174.75061035 4.18301392 C-179.53096575 4.22579819 -181.51388885 4.92158856 -184.4375 8.6875 Z " fill="#F5F6F6" transform="translate(303.4375,4.3125)"/>
<path d="M0 0 C0.718461 -0.00794586 1.436922 -0.01589172 2.17715454 -0.02407837 C20.6746234 -0.18128215 20.6746234 -0.18128215 27.85546875 5.8984375 C30.88066553 10.11113108 30.90782112 14.97386827 31.1875 20 C31.25525635 20.9789624 31.3230127 21.9579248 31.39282227 22.96655273 C31.57664826 25.76856289 31.72700232 28.57091635 31.875 31.375 C32.01808594 33.32212891 32.01808594 33.32212891 32.1640625 35.30859375 C32.50652876 42.52742193 32.50652876 42.52742193 29.5 46.5625 C25.39610407 49.39614243 23.7663323 49.39818934 18.8125 48.9375 C-0.49202128 46.77128985 -0.49202128 46.77128985 -18.125 52.5 C-21.12859574 56.81766887 -21.61115826 60.52388435 -20.75 65.57421875 C-16.87037322 79.46813214 -4.46500725 87.54196522 6.80932617 95.18920898 C26.09953201 108.33703667 41.60860689 123.04617687 47.62890625 146.28515625 C51.08923758 164.65153021 50.94633569 185.19270537 40.4296875 201.203125 C39.91664063 201.91984375 39.40359375 202.6365625 38.875 203.375 C38.42382812 204.00921875 37.97265625 204.6434375 37.5078125 205.296875 C26.84533414 218.9111129 8.62565919 225.13197153 -7.95344543 227.15812683 C-11.33397734 227.49574058 -14.71134488 227.55702128 -18.10546875 227.578125 C-18.84017899 227.58382507 -19.57488922 227.58952515 -20.3318634 227.59539795 C-21.87723381 227.6047773 -23.42262358 227.61135351 -24.96801758 227.61523438 C-27.28959483 227.62490459 -29.6102715 227.6559804 -31.93164062 227.6875 C-40.01090259 227.74407421 -47.16853142 227.17823084 -55.03100586 225.09667969 C-61.45207721 223.59895327 -68.07419996 223.54233435 -74.63867188 223.203125 C-82.63366202 222.70790226 -90.33148106 221.90401262 -97.125 217.375 C-99.28587338 210.14495449 -99.60420253 202.94557817 -99.875 195.4375 C-99.93042969 194.30248047 -99.98585937 193.16746094 -100.04296875 191.99804688 C-100.08550781 190.91716797 -100.12804687 189.83628906 -100.171875 188.72265625 C-100.21151367 187.74304932 -100.25115234 186.76344238 -100.29199219 185.75415039 C-100.125 183.375 -100.125 183.375 -98.125 181.375 C-95.953125 181.14453125 -95.953125 181.14453125 -93.375 181.1875 C-92.11429688 181.19716797 -92.11429688 181.19716797 -90.828125 181.20703125 C-88.125 181.375 -88.125 181.375 -85.3046875 181.8671875 C-81.53003494 182.47001899 -77.81309871 182.63444204 -74 182.6875 C-73.29746094 182.71650391 -72.59492188 182.74550781 -71.87109375 182.77539062 C-68.32496862 182.81896305 -66.55715561 182.75184559 -63.8359375 180.37890625 C-63.27132812 179.71761719 -62.70671875 179.05632812 -62.125 178.375 C-58.21125192 177.92341368 -55.3247529 178.31919946 -51.53125 179.37890625 C-46.64139635 180.63011362 -41.90198768 180.71855052 -36.875 180.6875 C-35.48945923 180.68121582 -35.48945923 180.68121582 -34.07592773 180.67480469 C-24.68347124 180.51989796 -15.53877383 179.61817796 -8.125 173.375 C-4.87169008 168.49503512 -5.67449605 163.08372971 -6.125 157.375 C-9.84906441 146.39881016 -22.38606747 139.34101966 -31.875 133.625 C-52.25803532 121.20863281 -68.28931911 104.14129329 -74.125 80.5 C-75.31735841 73.28390883 -75.42838139 66.05410364 -75.5 58.75 C-75.51417969 57.62996582 -75.52835937 56.50993164 -75.54296875 55.35595703 C-75.45886186 41.00521909 -72.36766718 27.63448319 -62.25 17 C-45.28318539 1.34077824 -21.92145075 0.12922791 0 0 Z M-62.375 21.4375 C-74.85534309 36.0850883 -73.14116875 57.00398762 -71.95507812 74.9453125 C-70.03445662 93.3696816 -58.60092239 109.28227913 -44.98046875 121.12890625 C-39.88949679 125.13343275 -34.46387048 128.61362897 -29.02978516 132.12988281 C-25.98527448 134.12001412 -22.99020737 136.17949022 -20 138.25 C-18.98679687 138.94867188 -17.97359375 139.64734375 -16.9296875 140.3671875 C-10.56662122 144.92236308 -5.89618279 149.19769645 -3.3125 156.75 C-2.37053571 169.9375 -2.37053571 169.9375 -6.125 175.375 C-12.64654051 182.50793493 -24.31787184 183.00890235 -33.44921875 183.5 C-39.4839436 183.65548405 -45.18308115 182.80549378 -51.12890625 181.83203125 C-54.61979212 181.29952324 -57.61379029 180.99334677 -61.125 181.375 C-63.24307367 182.94615324 -64.03551624 183.81146538 -64.453125 186.44140625 C-64.42734375 187.26511719 -64.4015625 188.08882812 -64.375 188.9375 C-64.34664063 189.90042969 -64.31828125 190.86335937 -64.2890625 191.85546875 C-64.20785156 193.59763672 -64.20785156 193.59763672 -64.125 195.375 C-64.07030555 196.89192683 -64.01561853 198.40885393 -63.9609375 199.92578125 C-63.89251233 201.53393558 -63.82219611 203.14201055 -63.75 204.75 C-63.71938477 205.52287354 -63.68876953 206.29574707 -63.65722656 207.09204102 C-63.44017152 211.21384446 -63.10304644 214.66097574 -61.125 218.375 C-52.66954602 225.77352224 -40.566834 224.71211583 -30 224.625 C-29.31146942 224.62123352 -28.62293884 224.61746704 -27.9135437 224.61358643 C-5.55453806 224.46992402 15.57109579 221.91377868 32.6875 206.0625 C44.83316682 192.92890813 46.75406173 177.4086351 46.2578125 160.2421875 C45.24477462 140.45927792 36.67604784 124.46025952 22.375 110.9375 C16.5634849 105.87175053 10.21031746 101.56228608 3.8828125 97.17578125 C-0.58835002 94.07132694 -4.88530657 90.78720941 -9.125 87.375 C-10.176875 86.59125 -11.22875 85.8075 -12.3125 85 C-19.04982879 78.71182647 -23.38512519 71.14705869 -24.07421875 61.97265625 C-24.14979882 58.10644517 -24.04479534 54.80320597 -22.125 51.375 C-15.64669558 45.29023744 -7.82707844 45.1996814 0.671875 45.3828125 C2.13931625 45.4003081 3.60676457 45.41721833 5.07421875 45.43359375 C7.36104195 45.46467678 9.64750613 45.50045212 11.93408203 45.54638672 C14.15922605 45.58863929 16.38394041 45.61212089 18.609375 45.6328125 C19.29376648 45.65143341 19.97815796 45.67005432 20.68328857 45.6892395 C23.43939657 45.7041649 25.4302864 45.64251954 27.82226562 44.20361328 C29.30210847 41.63310704 29.13756426 39.81043596 28.984375 36.859375 C28.93410156 35.77269531 28.88382812 34.68601562 28.83203125 33.56640625 C28.76371094 32.43074219 28.69539063 31.29507813 28.625 30.125 C28.57214844 29.00480469 28.51929688 27.88460937 28.46484375 26.73046875 C28.44805319 16.5694739 28.44805319 16.5694739 24.75 7.5625 C19.43181907 3.51605799 13.76399378 3.11414957 7.23828125 3.0390625 C6.52483047 3.03077423 5.8113797 3.02248596 5.0763092 3.01394653 C2.7798263 2.99471685 0.48405052 2.99461171 -1.8125 3 C-2.5944574 2.99987915 -3.37641479 2.9997583 -4.18206787 2.99963379 C-25.44259206 3.04652439 -46.75062546 5.43204315 -62.375 21.4375 Z " fill="#070101" transform="translate(332.125,5.625)"/>
<path d="M0 0 C0.85078125 0.01417969 1.7015625 0.02835938 2.578125 0.04296875 C3.83882812 0.05263672 3.83882812 0.05263672 5.125 0.0625 C7.828125 0.23046875 7.828125 0.23046875 10.6328125 0.70703125 C14.48827955 1.33861143 18.30588642 1.57802159 22.203125 1.79296875 C22.93917969 1.83615234 23.67523438 1.87933594 24.43359375 1.92382812 C26.23160568 2.02890674 28.02984458 2.13008968 29.828125 2.23046875 C29.80492187 2.84148437 29.78171875 3.4525 29.7578125 4.08203125 C29.61587756 11.28016036 29.99034591 18.42823552 30.515625 25.60546875 C30.56895996 26.55631348 30.62229492 27.5071582 30.67724609 28.48681641 C31.18385995 34.71454038 32.30624922 37.86200071 36.828125 42.23046875 C11.124125 42.87846875 11.124125 42.87846875 -0.171875 37.23046875 C-1.98617941 34.40508744 -2.49921837 31.9108214 -2.8046875 28.59765625 C-2.88847656 27.70820313 -2.97226563 26.81875 -3.05859375 25.90234375 C-3.13722656 24.979375 -3.21585938 24.05640625 -3.296875 23.10546875 C-3.38324219 22.20570313 -3.46960938 21.3059375 -3.55859375 20.37890625 C-4.74349208 7.28860089 -4.74349208 7.28860089 -4.171875 2.23046875 C-2.171875 0.23046875 -2.171875 0.23046875 0 0 Z " fill="#333742" transform="translate(236.171875,186.76953125)"/>
<path d="M0 0 C0 0.66 0 1.32 0 2 C-1.81757579 3.10427429 -3.68151533 4.13257864 -5.5625 5.125 C-15.30124399 10.69327009 -20.19640347 17.48509886 -24 28 C-24.37064866 29.65876715 -24.71616962 31.32419297 -25 33 C-25.99 32.34 -26.98 31.68 -28 31 C-27.5731326 21.39548361 -22.11138823 13.22104895 -15.22265625 6.796875 C-4.82555156 -1.60851719 -4.82555156 -1.60851719 0 0 Z " fill="#F2F2F3" transform="translate(251,13)"/>
<path d="M0 0 C1.45606519 4.52092968 0.27032841 7.51648796 -1 12 C-1.99 11.34 -2.98 10.68 -4 10 C-3.38461538 3.47692308 -3.38461538 3.47692308 -1.4375 1.0625 C-0.7259375 0.5365625 -0.7259375 0.5365625 0 0 Z " fill="#E6E7E8" transform="translate(227,34)"/>
<path d="M0 0 C0.99 0.33 1.98 0.66 3 1 C3 1.66 3 2.32 3 3 C-0.96 4.98 -0.96 4.98 -5 7 C-5 4 -5 4 -3.625 2.375 C-2 1 -2 1 0 0 Z " fill="#EAEAEB" transform="translate(248,12)"/>
</svg>
